<?xml version="1.0" standalone="no"?>
<!DOCTYPE svg PUBLIC "-//W3C//DTD SVG 20010904//EN"
 "http://www.w3.org/TR/2001/REC-SVG-20010904/DTD/svg10.dtd">
<svg version="1.0" xmlns="http://www.w3.org/2000/svg"
 width="1000.000000pt" height="1000.000000pt" viewBox="0 0 1000.000000 1000.000000"
 preserveAspectRatio="xMidYMid meet">
<metadata>
Created by potrace 1.11, written by Peter Selinger 2001-2013
</metadata>
<g transform="translate(0.000000,1000.000000) scale(0.100000,-0.100000)"
fill="#000000" stroke="none">
<path d="M2500 9500 l0 -500 2500 0 2500 0 0 500 0 500 -2500 0 -2500 0 0
-500z"/>
<path d="M7593 8423 c3 -93 -18 -120 -128 -173 -62 -31 -116 -47 -212 -65 -70
-14 -155 -34 -188 -46 -88 -31 -188 -102 -246 -173 -68 -83 -144 -240 -175
-361 -32 -124 -44 -355 -25 -485 12 -78 11 -85 -6 -97 -16 -13 -19 -11 -27 24
l-9 38 -11 -45 c-10 -43 -13 -45 -49 -48 -41 -4 -122 30 -170 70 l-28 23 67
50 c114 85 185 207 168 286 -12 54 -14 55 -41 20 -15 -18 -41 -40 -59 -47 -39
-16 -121 -18 -158 -4 l-26 9 46 65 c91 132 119 259 73 336 l-21 34 -15 -29
c-41 -80 -104 -114 -207 -115 l-68 0 6 28 c15 68 18 202 6 247 -13 45 -58 105
-79 105 -6 0 -11 -18 -11 -40 0 -74 -43 -128 -129 -160 l-51 -20 0 38 c0 61
-18 106 -55 142 l-35 34 0 -26 c0 -89 -69 -153 -180 -168 -95 -13 -170 -39
-297 -102 -122 -61 -126 -62 -221 -66 -125 -6 -136 -11 -127 -65 3 -23 9 -109
11 -190 5 -141 7 -148 27 -156 35 -14 67 -55 82 -105 8 -25 11 -46 7 -46 -4 0
-37 7 -73 14 -79 17 -145 49 -153 73 -10 32 8 108 27 111 11 2 17 -3 17 -13 0
-14 3 -15 15 -5 20 17 19 26 -7 50 -34 31 -74 26 -98 -12 l-20 -33 0 88 c0 82
-1 87 -21 87 -35 0 -75 -53 -93 -124 -28 -112 -16 -196 43 -288 31 -49 31 -58
-5 -58 -43 0 -34 -18 20 -44 95 -45 169 -59 284 -54 l104 5 -6 -30 c-3 -16 -6
-36 -6 -44 0 -12 -4 -12 -22 1 -12 9 -25 16 -28 16 -3 0 -4 -26 -2 -58 3 -52
0 -63 -32 -111 -20 -30 -34 -56 -32 -58 3 -3 27 1 54 7 46 12 52 12 82 -10 36
-25 70 -25 303 6 127 17 150 15 141 -13 -31 -96 -63 -114 -220 -124 -99 -6
-122 -11 -225 -52 -144 -58 -191 -71 -221 -64 -40 10 -169 100 -241 167 -121
113 -211 247 -294 440 -30 69 -71 154 -92 190 -59 99 -186 236 -330 353 -203
168 -207 174 -176 302 8 33 15 94 15 136 0 64 -4 84 -25 120 -14 24 -25 51
-25 59 0 28 -72 119 -118 150 -33 22 -57 30 -90 30 l-44 0 26 -35 c40 -52 66
-115 66 -162 0 -37 -3 -43 -20 -43 -11 0 -23 -7 -27 -16 -5 -12 -13 -8 -42 20
-38 37 -190 106 -233 106 -48 0 -102 -23 -141 -59 l-40 -37 64 -24 c64 -23
136 -80 125 -99 -4 -5 -23 -3 -47 7 -40 15 -40 15 -65 -11 -19 -20 -34 -27
-64 -27 -46 0 -124 -25 -162 -51 -25 -18 -88 -104 -88 -120 0 -5 12 -4 26 1
41 16 94 12 121 -10 15 -12 41 -20 63 -20 29 0 39 -5 47 -23 13 -28 99 -57
170 -57 41 0 54 -5 76 -28 57 -60 25 -111 -76 -121 -76 -8 -111 -28 -128 -75
-7 -20 -21 -37 -33 -40 -30 -8 -124 -6 -173 3 -40 8 -43 7 -43 -14 0 -58 105
-151 204 -180 104 -31 186 -16 278 52 62 45 104 51 161 24 53 -25 45 -12 113
-216 29 -88 56 -159 61 -159 4 1 12 11 18 23 5 11 15 21 20 21 30 0 35 -27 35
-179 l1 -156 30 35 c24 29 31 32 39 20 5 -8 8 -22 6 -30 -3 -8 -7 -78 -11
-155 -6 -148 -5 -151 37 -76 17 32 32 37 57 22 11 -7 11 -20 -3 -79 -17 -74
-22 -172 -8 -172 4 0 16 16 26 35 11 19 22 35 26 35 9 0 28 -94 38 -190 l8
-65 27 43 c27 41 28 42 51 27 13 -9 39 -48 58 -88 39 -80 100 -179 128 -207
18 -18 16 -19 -43 -56 -34 -21 -226 -152 -427 -292 -227 -158 -401 -271 -460
-300 -95 -47 -95 -47 -201 -47 -105 0 -107 0 -155 34 -27 19 -68 51 -90 72
-44 39 -107 64 -131 50 -8 -4 -20 -18 -26 -31 -8 -16 -27 -27 -60 -35 -71 -18
-126 -61 -159 -124 -16 -30 -27 -55 -26 -57 2 -1 29 5 61 13 67 19 91 14 190
-44 32 -19 76 -40 96 -45 36 -10 35 -11 -81 -44 -182 -52 -230 -82 -212 -132
8 -22 4 -39 -20 -92 -37 -80 -47 -177 -22 -215 21 -32 34 -32 42 -1 7 31 133
117 203 141 30 10 74 37 114 73 62 55 200 132 213 119 4 -3 4 -17 0 -30 -5
-22 -22 -46 -106 -152 -37 -47 -51 -85 -31 -85 5 0 8 -44 8 -98 -2 -87 1 -103
26 -154 15 -31 39 -63 52 -72 25 -16 25 -16 25 15 0 42 53 132 99 169 42 34
53 65 76 215 23 146 69 225 130 225 31 0 35 -20 35 -190 0 -131 1 -142 15
-123 8 12 36 29 63 37 40 14 55 28 101 91 30 41 57 75 59 75 2 0 17 -13 32
-30 38 -41 50 -38 51 13 0 63 13 120 26 124 7 3 19 -12 27 -31 8 -20 17 -36
19 -36 2 0 18 29 36 65 18 36 38 65 44 65 7 -1 24 -19 40 -41 15 -22 32 -37
37 -34 6 4 24 35 40 71 16 35 32 64 37 64 4 0 35 -23 68 -52 57 -49 113 -88
126 -88 4 0 3 19 -2 43 -4 23 -8 45 -9 48 -1 16 53 19 69 4 24 -21 31 -19 31
11 0 28 49 84 73 84 8 0 31 -7 50 -15 20 -8 52 -15 71 -15 l35 0 -21 37 c-21
35 -21 36 -3 28 11 -4 34 -10 50 -13 17 -2 36 -9 43 -15 7 -5 32 -10 55 -11
32 -1 53 7 89 32 26 17 51 32 57 32 6 0 11 -16 11 -36 0 -34 1 -35 22 -20 12
9 35 16 50 16 20 0 40 14 74 50 26 28 52 50 58 50 7 0 40 -38 74 -83 119 -160
227 -227 423 -262 72 -13 137 -30 146 -36 42 -35 96 -195 71 -211 -19 -11
-121 -9 -210 6 -60 10 -89 21 -130 49 -96 66 -175 81 -262 52 -49 -17 -199
-106 -261 -156 -22 -18 -68 -45 -103 -62 -62 -29 -65 -29 -125 -17 -129 27
-153 48 -163 146 -4 45 -1 74 15 119 11 33 18 61 16 64 -5 4 -89 -65 -122
-101 -12 -13 -32 -45 -43 -72 -26 -58 -22 -110 15 -174 l25 -44 -43 7 c-103
18 -235 89 -296 161 l-33 39 6 -42 c23 -155 135 -289 286 -342 30 -11 56 -23
58 -29 5 -17 -88 -110 -131 -131 -30 -14 -63 -21 -105 -21 -34 0 -62 -4 -62
-10 0 -25 86 -54 179 -60 l95 -7 65 39 c36 21 69 38 74 38 4 0 1 -13 -7 -29
-19 -35 -12 -43 31 -35 23 4 46 0 78 -15 25 -12 60 -21 78 -21 l33 0 33 -102
c18 -57 49 -136 68 -176 19 -41 37 -90 40 -109 l6 -35 -334 6 c-184 4 -355 12
-381 17 -36 8 -69 29 -140 89 l-94 78 -18 78 c-30 126 -48 150 -96 124 -14 -8
-33 -5 -72 11 -97 40 -223 25 -285 -33 -31 -29 -29 -38 10 -38 41 -1 105 -30
136 -64 l24 -26 -42 0 c-34 0 -44 -4 -48 -19 -3 -13 -17 -21 -46 -25 -52 -9
-119 -74 -137 -134 -7 -23 -11 -44 -8 -47 2 -3 24 3 47 12 34 13 46 14 59 5
10 -7 28 -17 41 -22 29 -13 21 -21 -43 -45 -96 -35 -175 -134 -176 -217 l0
-37 37 25 c23 15 45 23 58 20 11 -3 41 -6 67 -6 39 0 53 -5 78 -30 28 -27 37
-30 99 -30 39 0 84 7 106 16 84 35 210 38 210 5 0 -19 -84 -61 -124 -61 -25 0
-42 -9 -72 -39 -43 -42 -50 -71 -19 -71 20 0 20 0 0 -50 -37 -94 -20 -235 33
-279 15 -12 17 -11 17 8 0 12 11 33 25 47 14 14 25 29 25 34 0 13 57 53 111
79 52 24 76 60 109 164 27 83 40 97 91 97 37 0 41 -3 55 -37 34 -83 59 -129
92 -165 l34 -38 39 34 c36 33 89 66 106 66 4 0 35 -34 68 -75 33 -42 78 -87
99 -101 37 -25 39 -25 49 -8 18 33 84 94 101 94 9 0 31 -21 49 -47 37 -54 116
-143 127 -143 4 0 26 28 49 62 85 129 95 133 141 53 31 -55 43 -64 55 -45 3 6
18 10 32 10 17 0 39 14 67 44 22 24 50 48 60 54 11 6 62 8 121 4 99 -5 103 -4
118 19 10 13 17 29 17 36 0 7 14 35 30 63 17 28 30 53 30 55 0 2 -55 1 -122
-2 l-123 -5 -49 33 c-31 21 -59 51 -74 79 -21 39 -23 53 -17 110 13 133 50
224 127 312 69 79 190 128 314 128 l74 0 0 78 c0 68 -3 79 -21 90 -25 16 -23
43 12 174 27 98 64 149 135 184 58 28 175 44 228 30 48 -12 26 -22 -46 -22
-85 1 -137 -13 -195 -50 -49 -32 -73 -73 -102 -170 -24 -82 -26 -115 -8 -132
7 -8 14 -53 17 -115 5 -101 6 -104 77 -257 62 -136 133 -325 133 -355 0 -6
-26 -23 -58 -37 -115 -53 -203 -167 -218 -284 -7 -60 12 -164 30 -164 7 0 18
22 25 49 7 27 18 57 25 66 11 16 15 16 42 2 23 -12 35 -31 57 -94 17 -50 38
-90 57 -108 l30 -29 0 47 c0 90 43 132 103 100 59 -30 98 -34 145 -13 24 11
41 24 38 29 -4 5 -26 19 -51 31 -65 32 -90 71 -90 145 l0 60 36 3 c27 2 56 -8
115 -39 70 -36 85 -41 126 -36 66 8 118 38 197 112 81 76 78 78 121 -51 50
-147 37 -225 -54 -322 -30 -32 -53 -70 -66 -107 -24 -68 -54 -120 -83 -140
-30 -21 -112 -19 -184 6 -34 11 -74 19 -90 17 -24 -3 -28 -8 -31 -39 -3 -30
-8 -37 -39 -48 -50 -18 -110 -76 -139 -134 -25 -49 -44 -147 -28 -147 4 0 20
12 35 26 24 23 37 26 103 29 42 1 78 0 80 -4 3 -4 -8 -27 -23 -52 -16 -24 -31
-60 -34 -79 -2 -19 -12 -55 -22 -79 -20 -54 -8 -120 30 -166 l24 -30 11 32
c11 32 76 83 105 83 10 0 15 -10 15 -33 0 -60 28 -132 71 -181 47 -53 59 -57
59 -18 0 56 20 98 71 147 63 61 78 91 90 173 16 110 102 236 158 230 26 -3 26
-4 23 -78 -3 -93 17 -132 82 -160 24 -10 48 -24 52 -32 5 -7 11 -46 14 -86 l5
-72 57 40 c50 36 59 47 71 93 8 29 20 103 26 166 13 127 6 152 -47 172 -15 6
-39 22 -54 37 -23 21 -28 34 -28 75 0 62 39 107 93 107 54 0 106 27 129 66 11
19 31 40 45 47 23 13 22 14 -56 58 -45 24 -79 48 -78 53 2 5 40 22 86 37 83
27 121 51 121 75 0 8 17 29 37 48 l37 34 -52 26 c-29 14 -52 31 -52 36 0 6 18
17 40 26 40 16 146 126 137 141 -3 5 -37 24 -76 43 -39 18 -71 40 -71 46 0 7
21 29 47 49 33 25 51 48 61 78 8 23 20 49 28 58 24 26 16 37 -38 53 -83 25
-86 30 -29 54 27 12 57 22 65 22 17 0 85 86 86 108 0 7 -14 12 -38 12 -48 0
-138 44 -160 78 -9 14 -19 53 -22 86 -6 56 -4 62 23 93 l29 33 -33 0 c-19 0
-48 9 -66 20 -53 32 -67 64 -73 164 l-5 91 -20 -25 c-109 -136 -259 -229 -386
-238 -62 -4 -75 -2 -132 26 -34 17 -76 45 -92 62 l-30 31 -3 145 c-3 110 0
149 10 161 10 12 13 62 12 202 0 195 -14 299 -56 431 -24 75 -247 517 -321
635 -127 203 -147 239 -147 271 0 60 8 67 44 39 71 -54 169 -71 241 -41 43 18
44 27 6 49 -16 9 -41 31 -55 48 -22 26 -26 40 -26 92 0 107 0 107 89 107 114
0 176 22 234 81 63 66 62 79 -9 79 -67 0 -113 20 -155 68 -39 44 -79 130 -86
183 l-6 39 39 0 c54 0 145 23 185 46 35 21 79 77 79 101 0 10 -10 12 -40 7
-57 -9 -119 17 -170 72 l-42 46 80 39 c55 27 93 53 121 85 23 26 41 50 41 54
0 4 6 10 14 13 9 4 23 -19 45 -77 17 -46 56 -123 87 -172 91 -145 173 -234
358 -388 196 -163 288 -272 386 -457 56 -107 116 -277 126 -359 l7 -55 -37 47
c-66 85 -197 166 -307 189 -63 13 -108 38 -128 71 -8 12 -18 57 -22 98 -6 62
-4 85 12 134 11 32 18 60 17 62 -10 10 -109 -49 -131 -78 -30 -39 -49 -113
-41 -160 9 -48 42 -161 53 -177 7 -11 -5 -23 -49 -52 -42 -27 -63 -48 -76 -78
-17 -39 -20 -41 -49 -35 -50 10 -107 41 -172 94 -34 27 -64 50 -67 50 -3 0 -6
-24 -6 -52 0 -90 46 -167 128 -214 17 -10 32 -22 32 -26 0 -5 -19 -45 -42 -89
-40 -77 -43 -86 -43 -163 1 -97 29 -168 95 -240 58 -63 73 -61 63 7 -4 28 -7
90 -6 136 2 73 6 90 29 123 42 60 61 59 144 -7 55 -45 80 -59 113 -62 41 -5
44 -3 81 42 l39 46 -30 32 c-45 48 -73 93 -73 116 0 64 127 130 230 118 67 -8
162 -60 210 -115 111 -126 118 -265 21 -467 -46 -98 -122 -183 -223 -250 -230
-155 -456 -132 -663 67 -46 43 -100 104 -121 134 -20 30 -39 52 -41 50 -2 -2
3 -53 12 -112 10 -62 18 -176 18 -264 l1 -156 26 4 c15 2 66 -8 114 -23 118
-36 248 -55 383 -55 132 0 230 17 339 59 148 57 237 133 319 272 167 282 227
590 180 925 -19 135 -38 205 -86 317 -83 196 -169 308 -509 667 -498 524 -528
575 -517 870 6 160 24 249 78 372 48 112 85 164 173 240 136 119 229 148 280
87 33 -39 42 -74 27 -107 -7 -14 -27 -67 -44 -117 -30 -85 -31 -98 -30 -221 1
-72 7 -143 13 -158 l10 -28 47 43 c28 25 48 38 51 31 2 -7 -18 -63 -45 -125
-45 -105 -48 -117 -48 -198 0 -78 3 -90 30 -134 17 -27 51 -65 75 -83 l45 -34
6 28 c6 29 30 74 39 74 3 0 16 -19 30 -41 30 -50 85 -89 123 -89 24 0 28 3 22
18 -16 41 -18 160 -2 206 21 62 104 176 127 176 10 0 55 -31 100 -70 97 -83
124 -89 202 -39 26 17 48 32 48 33 0 2 -23 17 -50 35 -78 50 -130 139 -130
221 0 50 47 136 131 240 65 80 139 221 119 228 -4 2 -42 -20 -84 -47 -93 -60
-140 -70 -222 -46 -48 14 -69 28 -124 83 -89 89 -108 140 -124 328 -10 113
-18 151 -37 190 -36 72 -48 68 -46 -13z m-2038 -775 c-11 -34 -54 -76 -87 -83
-35 -8 -100 2 -123 19 -16 12 -15 15 13 34 34 25 120 50 170 51 30 1 33 -1 27
-21z m-175 -434 l0 -56 -62 7 c-35 4 -102 7 -150 8 -51 1 -88 6 -88 12 0 14
62 54 107 71 21 7 73 13 116 14 l77 0 0 -56z m54 -223 c16 -6 13 -12 -25 -52
-50 -50 -114 -84 -179 -94 -72 -10 -95 4 -115 71 -9 31 -14 63 -11 70 4 11 37
14 158 13 84 0 161 -4 172 -8z m-678 -840 c-67 -87 -75 -85 -14 5 29 42 54 72
56 66 2 -7 -17 -38 -42 -71z m-106 -115 c0 -2 -8 -10 -17 -17 -16 -13 -17 -12
-4 4 13 16 21 21 21 13z m-90 -61 c0 -2 -10 -9 -22 -15 -22 -11 -22 -10 -4 4
21 17 26 19 26 11z"/>
<path d="M2035 6958 c3 -24 11 -71 17 -105 l10 -63 37 0 c20 0 42 -4 48 -8 8
-5 -2 -8 -22 -8 -49 0 -83 -36 -105 -115 -10 -35 -35 -106 -54 -158 -20 -51
-36 -105 -36 -118 0 -36 26 -90 48 -102 33 -18 35 -13 8 20 -42 50 -36 107 19
193 43 66 45 73 45 141 0 92 21 125 80 125 31 0 43 -6 67 -35 21 -26 32 -33
43 -25 13 8 13 12 1 32 -48 76 -47 74 -29 125 11 32 14 51 7 59 -14 17 -152
84 -172 84 -14 0 -16 -7 -12 -42z"/>
<path d="M2842 6975 c-86 -40 -114 -63 -102 -85 19 -36 11 -93 -19 -139 -44
-67 -26 -70 33 -7 47 50 56 56 93 56 40 0 41 1 51 43 6 23 14 68 17 100 9 67
5 69 -73 32z"/>
<path d="M2309 6919 c-45 -13 -76 -44 -83 -84 l-6 -30 14 31 c10 21 28 37 55
47 37 15 43 15 97 -3 70 -24 130 -25 199 -4 61 19 96 14 131 -21 25 -25 32
-18 14 16 -20 36 -66 51 -153 49 -45 -1 -116 0 -157 4 -41 3 -91 0 -111 -5z"/>
<path d="M2345 6751 c-16 -10 -65 -52 -107 -93 -58 -56 -78 -81 -78 -101 0
-14 4 -28 9 -31 4 -3 6 5 4 17 -6 31 17 58 67 76 31 11 56 32 85 68 32 41 46
52 71 52 16 1 35 -4 42 -11 9 -9 12 -9 12 -1 0 15 -40 43 -60 43 -8 0 -28 -9
-45 -19z"/>
<path d="M2514 6746 c-10 -8 -16 -18 -11 -22 4 -4 7 -2 7 4 0 7 15 12 37 12
31 0 44 -8 84 -49 30 -32 62 -54 88 -62 50 -15 62 -29 71 -77 6 -36 6 -36 19
-14 6 12 10 31 7 40 -8 24 -128 120 -194 154 -60 32 -80 34 -108 14z"/>
<path d="M2866 6731 c39 -24 52 -57 57 -152 3 -63 9 -85 33 -124 60 -96 67
-115 55 -141 -17 -37 -71 -59 -111 -45 -36 12 -50 8 -50 -17 0 -12 15 -23 43
-32 34 -12 46 -23 62 -57 19 -41 21 -43 65 -43 45 0 156 22 167 33 8 8 -62 91
-103 122 -31 24 -37 25 -52 13 -36 -31 -45 -30 -23 1 37 51 37 95 2 183 -17
42 -31 83 -31 90 0 72 -77 188 -124 188 -18 0 -16 -3 10 -19z"/>
<path d="M2470 6521 c0 -11 -4 -23 -10 -26 -5 -3 -10 0 -10 8 0 21 -27 29 -34
11 -3 -9 -11 -12 -17 -9 -6 4 -13 -2 -16 -14 -3 -12 -12 -21 -20 -21 -13 0
-14 -14 -11 -77 2 -48 8 -78 16 -81 7 -2 12 -12 12 -23 0 -22 28 -26 36 -4 10
24 22 17 16 -10 -3 -17 0 -25 9 -25 8 0 24 -3 37 -6 18 -5 22 -2 22 15 0 11
-6 21 -12 21 -7 1 1 7 18 14 63 28 82 92 44 154 -11 17 -17 32 -14 32 10 0 34
-28 34 -39 0 -6 5 -11 10 -11 6 0 10 -18 10 -40 0 -22 -4 -40 -10 -40 -5 0
-10 -7 -10 -15 0 -8 -4 -15 -10 -15 -5 0 -10 -7 -10 -15 0 -8 -7 -15 -15 -15
-8 0 -15 -9 -15 -20 0 -24 -1 -24 38 -4 18 8 32 22 32 30 0 8 4 14 9 14 17 0
25 62 10 71 -10 6 -11 9 -1 9 6 0 12 7 12 15 0 27 -34 95 -48 95 -7 0 -21 8
-30 17 -16 16 -17 15 -20 -5 -5 -30 -22 -28 -22 3 0 16 -6 25 -15 25 -8 0 -15
-9 -15 -19z m-70 -70 c0 -6 -4 -13 -10 -16 -5 -3 -10 1 -10 9 0 9 5 16 10 16
6 0 10 -4 10 -9z"/>
<path d="M2137 6478 c-34 -18 -40 -56 -18 -112 11 -28 32 -85 47 -126 14 -41
34 -81 42 -87 19 -16 52 -17 52 -2 0 5 -5 7 -11 4 -6 -4 -21 3 -35 16 -18 17
-24 33 -24 63 0 27 -10 58 -30 91 -33 56 -38 99 -14 133 19 27 16 34 -9 20z"/>
<path d="M2797 6478 c37 -18 38 -45 3 -110 -30 -58 -56 -184 -31 -148 6 8 11
22 11 30 0 8 13 42 28 75 16 33 29 76 30 95 1 37 -21 70 -47 69 -11 0 -9 -4 6
-11z"/>
<path d="M1836 6243 c-81 -81 -85 -90 -39 -103 21 -6 67 -13 103 -17 65 -5 65
-5 77 23 11 25 12 26 8 5 -2 -14 4 -44 14 -67 15 -33 32 -50 82 -79 34 -20 87
-59 118 -86 69 -61 143 -89 189 -70 17 7 33 19 36 27 4 11 1 11 -18 -1 -20
-13 -31 -14 -70 -4 -37 9 -53 20 -81 59 -40 54 -76 79 -154 105 -69 23 -91 45
-91 93 0 67 10 83 64 108 53 25 39 32 -27 13 -32 -9 -45 -7 -83 11 -24 12 -44
26 -44 31 0 22 -31 5 -84 -48z"/>
<path d="M2739 6183 c-13 -16 -12 -17 4 -4 16 13 21 21 13 21 -2 0 -10 -8 -17
-17z"/>
<path d="M2921 6169 c15 -29 -2 -87 -33 -116 -13 -11 -50 -30 -83 -42 -48 -17
-72 -35 -122 -88 -61 -64 -63 -66 -103 -60 -23 3 -51 14 -62 24 -15 13 -20 14
-16 4 2 -8 16 -23 30 -34 40 -30 93 -16 161 41 31 26 92 67 137 91 64 34 84
50 100 81 11 22 20 49 20 60 0 26 -17 60 -31 60 -6 0 -5 -8 2 -21z"/>
<path d="M2688 6163 c6 -2 18 -2 25 0 6 3 1 5 -13 5 -14 0 -19 -2 -12 -5z"/>
<path d="M2310 6117 c0 -9 9 -26 20 -37 18 -18 33 -20 159 -20 133 0 141 1
155 22 23 32 21 60 -2 32 -30 -38 -56 -46 -107 -33 -35 9 -56 9 -90 -1 -52
-14 -95 -2 -120 34 -13 17 -15 18 -15 3z"/>
<path d="M2460 5899 c0 -7 -16 -27 -36 -46 -35 -33 -36 -36 -26 -70 14 -45 73
-143 87 -143 16 0 104 156 93 165 -2 1 -18 10 -36 19 -18 10 -43 33 -54 52
-21 36 -28 41 -28 23z"/>
<path d="M2500 500 l0 -500 2500 0 2500 0 0 500 0 500 -2500 0 -2500 0 0 -500z"/>
</g>
</svg>
