<svg xmlns="http://www.w3.org/2000/svg" viewBox="0 0 3130.6 216" width="3130" height="216"><path d="M403.2,181l-4.7-11.2H383.4s-30-17.5-45-26.3h47.7C373.3,115,361,87.7,348.2,59.3c-1.6,3.5-2.7,5.7-3.7,8Q332,94.9,319.6,122.6c-.1-3.8-.1-7.6-.2-11.4-.1-19.2-.1-38.5-.2-57.7,7.4-16.3,14.8-32.7,22.1-49,1.5-3.4,4.2-4.3,7.7-4.3,3.7,0,5.8,1.8,7.3,5Q367.55,30.1,379,55.1q25.65,56.4,51.2,112.9c5.6,12.4,11,24.9,16.5,37.3-2.2-1-4.6-2-6.7-3.2C427.7,195,403.2,181,403.2,181Z" fill="#00b2d0"/><path d="M2475.9,65.1c5.3,14.7,10.5,29.3,15.8,44,4,11.2,7.9,22.5,11.9,33.8.4,1.2,1,2.4,2,4.8,2.3-8.8,4.3-16.4,6.3-24,2.9-10.9,5.9-21.7,8.9-32.6,8.6,5,17.3,10,25.9,15-8.3,29.9-16.7,59.8-25,89.7-1.5,5.4-3.2,10.8-4.6,16.3-1,4.1-2.5,7-7.5,7-7.3-.1-8.2-.4-10.4-6.7q-16-45.6-32.2-91.1c-5.9-16.6-11.7-33.2-17.6-49.8,5.9-3.4,11.8-6.9,17.7-10.3a2.92,2.92,0,0,0,.9-.2C2470.5,62.4,2473.2,63.8,2475.9,65.1Z" fill="#0086c9"/><path d="M2167.1,84.9c17.4,8.3,35.2,15.7,52,25.1,16.3,9.1,28.1,22.6,31,42.2,3.2,21.1-3.7,38.4-20.2,51.5-18.6,14.9-40.3,17.6-63.2,14,0-9.6.1-19.2.1-28.8,9,2,18,3.4,27.1.8,12-3.3,20.5-10.4,22.5-23.2,1.8-11.5-3.1-20.9-12.2-27.1-9.7-6.6-20.4-11.7-30.7-17.4-2.2-1.2-4.5-2.1-6.8-3.2C2166.9,107.6,2167,96.3,2167.1,84.9Z" fill="#eeaabd"/><path d="M876.4,212.1c-6,1.2-11.9,3.4-17.9,3.6-26.1.4-52.2.3-78.4.3-4.4,0-6.6-2-6.6-6.3,0-34.2.1-68.5.1-102.7,4.1-2,8.2-3.9,12.2-5.9,6.4-3.3,12.7-6.7,19-10,.1,2,.3,4,.3,6V187c10,0,19.2-.2,28.3.1,14.6.5,28.9-.7,42.7-5.8C876.2,191.5,876.3,201.8,876.4,212.1Z" fill="#60c2d4"/><path d="M1849,93.2a92.33,92.33,0,0,0-7.3,8c-.8,1.1-.5,3-.7,4.5-8.8,5.1-17.6,10.2-26.4,15.4l-4.2-5.4c-.4.2-.8.5-1.3.7-.2,2.8-.4,5.7-.7,8.5a42.48,42.48,0,0,0-4.9,2.1c-9.1,5-18.2,10.1-27.3,15.1-.1-11.6-.2-23.3-.2-34.9V12.4c0-7.3,2.1-9.4,9.5-9.4H1799c7.1,0,9.7,2.5,9.7,9.6.1,13.5,0,26.9,0,40.4V91.3c13.2-12.6,26.6-25.5,40.1-38.4C1849,66.4,1849,79.8,1849,93.2Z" fill="#5cc1d3"/><path d="M630.5,188.9q-13.2-26-26.3-52c-1.4-2.9-3.1-4.1-6.4-4-12.1.2-24.3.1-36.5.1-1.5,0-2.9.1-4.9.2v74.4c0,7-1.5,8.4-8.5,8.4H532.4c-5.8,0-7.7-1.8-7.7-7.8-.1-16.6-.1-33.3,0-49.9,0-5.8.3-11.6.4-17.4,12.3-7,24.6-13.9,36.8-20.9,7.6-4.4,15-9.1,22.6-13.6,7.1-.1,14.3-.5,21.4-.1,8.7.4,16.8-1,24.4-5.3a23.27,23.27,0,0,1,1.1,5.1c.1,26,.1,52.1,0,78.1A27.71,27.71,0,0,1,630.5,188.9Z" fill="#00b2d1"/><path d="M2440.9,76.9c-4.1,12.3-8.2,24.6-12.4,36.8q-17.25,49.65-34.6,99.2c-2,5.8-2.8,6.1-9.6,6.2-4.8.1-6.8-2.3-7.9-6.5q-11.55-41.55-23.3-82.9c-.2-.8-.2-1.6-.4-2.5,8.7-4.9,17.4-9.7,26-14.6,3.1,11.3,6.3,22.6,9.4,33.9.3,0,.5.1.8.1,2.7-7.6,5.3-15.2,8-22.7,3.3-9.3,6.7-18.6,10-27.9C2418.2,89.6,2429.5,83.2,2440.9,76.9Z" fill="#0086c9"/><path d="M2690.2,58.8c.1,2,.3,4,.3,6V205.4a33.82,33.82,0,0,1-.3,5.5c-.6,3.4-2.6,5.2-6.2,5.2-6.2-.1-12.3,0-18.5,0-4.8-.1-6.9-2-7.5-6.8a13.35,13.35,0,0,1,0-2V78.7c0-.7.1-1.3.1-2,1.5-.7,3-1.4,4.4-2.2C2671.8,69.2,2681,64,2690.2,58.8Z" fill="#5cc1d3"/><path d="M91.3,9.8c.7-1.7,1.5-3.3,2.1-5C94.7,1.5,97.1,0,100.8,0a7.82,7.82,0,0,1,7.8,5q14.4,32,29,63.9,21.9,48.3,43.9,96.4c-1.9-.9-3.9-1.7-5.8-2.7-12.7-7.2-25.3-14.4-38-21.5a22.47,22.47,0,0,1-1.2-2.1c-10.9-24.2-21.8-48.5-32.8-72.7-.9-2-1.9-4-3.1-6.7-3.3,6.8-6.1,12.6-8.9,18.4,0-5.6,0-11.3-.1-16.9C91.5,43.9,91.4,26.9,91.3,9.8Z" fill="#e02816"/><path d="M1414.7,128.9c8.8,19.2,17.6,38.3,26.4,57.5,3,6.6,6.1,13.3,9,20,2.8,6.3.7,9.6-6.1,9.6-5.5,0-11-.2-16.5.1-4.7.2-7.4-1.9-9.2-6-5.2-11.8-10.9-23.5-15.9-35.5-1.6-3.8-3.6-4.7-7.4-4.7-18,.1-36,0-53.9-.1V143.6h47.4c-2.3-5.1-4.1-9.1-5.9-13.2-3.6-8.4-7.1-16.8-10.6-25.1a22.27,22.27,0,0,1,3.1,1.2Q1394.9,117.6,1414.7,128.9Z" fill="#00b2d0"/><path d="M1341,143.5v26.2c-12,.1-24,.3-36,.1-3.1,0-4.7.9-5.9,3.8-5.2,12-10.8,23.9-15.9,36-2,4.6-4.9,6.7-10,6.5s-10.3,0-15.5-.1c-7.2-.1-9.3-3.2-6.3-9.9q15-33.15,30.3-66.1c4-8.7,8.1-17.4,12.2-26.2,1.3-.7,2.6-1.3,3.9-2.1q19.35-10.8,38.6-21.8c-7.7,17.6-15.4,35.1-23.4,53.4C1322.8,143.5,1331.9,143.5,1341,143.5Z" fill="#ee7409"/><path d="M876.4,212.1l-.3-30.9c.7-.4,1.5-.8,2.2-1.2,34.8-15.5,49.5-53.6,41.9-87.8-1.6-7.2-4.6-14.1-7-21.1,1.6.8,3.3,1.4,4.9,2.3L955,94.7c3.3,18.5.8,36.5-6.1,53.6-12.3,30.4-34.3,51.2-65.3,62.3A57.46,57.46,0,0,1,876.4,212.1Z" fill="#eeaabd"/><path d="M3079.6,3.3V31.9c-1.3.2-2.6.4-4.8.7V96.2c-2-1.1-4.1-2.2-6.1-3.3-8.4-4.6-16.8-9.3-25.2-13.9-.2-11.5-.3-22.9-.5-34.4V32.2h-46.9c-6.4,0-8.3-1.9-8.3-8.3,0-4.7-.1-9.3,0-14,.1-4.4,2.1-6.6,6.3-6.6C3022.6,3.1,3051.1,3.2,3079.6,3.3Z" fill="#0086c9"/><path d="M1814.6,121.1c8.8-5.1,17.6-10.2,26.4-15.4,12.2,13.2,24.4,26.3,36.4,39.6,17.8,19.5,35.5,39.2,53.3,58.7,2.4,2.6,3.5,5.2,2.1,8.5-1.4,3.1-4.1,3.5-7.1,3.5-7.7,0-15.3.2-23-.2a10.9,10.9,0,0,1-6.9-3q-40.2-44.85-80.2-90.1C1815.3,122.2,1815,121.7,1814.6,121.1Z" fill="#0086c9"/><path d="M1650.1,123.2c-4,2.3-7.9,4.7-12.2,7.3,5.3,9.9,10.7,19.8,16,29.7,8,14.9,16.1,29.8,24.1,44.7,4.1,7.6,1.9,11.1-6.9,11.1-6.7,0-13.3-.1-20,0-2.9,0-5.2-.8-6.5-3.5q-18.3-36.75-36.7-73.5c.1-10.9.1-21.7.2-32.6,4-.1,8-.3,12-.4C1630.1,111.8,1640.1,117.5,1650.1,123.2Z" fill="#0086c9"/><path d="M2841.7,102c5.7,0,11.3,0,17,.1.1.3.1.7.2,1-.1,9-.1,17.9-.2,26.9h-31.9v77.8c0,6.8-1.4,8.1-8.2,8.2-5.5,0-11,.1-16.5,0-5.1-.1-6.5-1.6-6.5-6.6,0-26.8,0-53.5.1-80.3,11.2-6.4,22.4-12.6,33.6-19.1C2833.6,107.5,2837.6,104.7,2841.7,102Z" fill="#eeaabd"/><path d="M2378.6,112.6c-8.7,4.9-17.4,9.7-26,14.6l-15.6-54c-5.7-19.9-11.2-39.9-16.9-59.9-2.3-8.1-.7-10.3,7.7-10.3,5.5,0,11,.1,16.5,0q5.55-.15,6.9,5.1Q2365,60.45,2378.6,112.6Z" fill="#f39308"/><path d="M584.5,106.4c-7.5,4.5-15,9.2-22.6,13.6-12.2,7.1-24.5,14-36.8,20.9-.1-1.3-.4-2.6-.4-3.9V23.3a32.93,32.93,0,0,1,.5-4.4c10.6,5.9,21.2,11.9,31.8,17.8v69.7Z" fill="#0086c9"/><path d="M804.8,91c-6.3,3.3-12.6,6.7-19,10-4,2.1-8.1,4-12.2,5.9,0-32.3-.1-64.5-.1-96.8,0-5,2.1-7,7-7.1,5.3,0,10.6.1,16,.2,1,.6,1.9,1.3,2.9,1.9C814.7,14,830,23,845.4,31.9H804.9C804.8,52.2,804.8,71.6,804.8,91Z" fill="#00b1d0"/><path d="M137.6,141.1s25.3,14.4,38,21.5c1.9,1,3.9,1.8,5.8,2.7,6.3,13.9,12.6,27.8,18.7,41.7,2.6,5.8.5,8.8-5.9,8.9-5.7.1-11.3-.1-17,.1-4.4.1-7.1-1.5-8.9-5.6-5.4-12.3-13-28.2-18.4-40.5,0,0-40.5,0-58.5-.1,0-8.8-.1-17.6-.1-26.3,1.8-.1,47-.4,47-.4Z" fill="#eeaabd"/><path d="M3074.7,102.1c.2,3.6.6,7.3.6,10.9v92.8c0,8.7-1.4,10.1-10,10.1h-14.5c-5.7-.1-7.7-2-8-7.8V124.8c0-2,.3-4,.4-5.9,5-2.6,9.9-5.3,14.9-7.9C3063.7,108,3069.2,105.1,3074.7,102.1Z" fill="#5cc1d3"/><path d="M1608.1,106.4c-.1,10.9-.1,21.7-.2,32.6-1.8-5.4-5.7-6.4-11.1-6.2-12.3.4-24.6.1-37.8.1v74.2c0,7.2-1.7,8.9-8.7,8.9-5.3,0-10.6.1-16,0-5-.1-7.2-2-7.2-6.8,0-21.1.1-42.2.1-63.3,13.5-7.8,27.1-15.5,40.6-23.3,9.2-5.3,18.2-10.8,27.4-16.3C1599.5,106.4,1603.8,106.4,1608.1,106.4Z" fill="#5cc1d3"/><path d="M91.4,143.5c0,8.8.1,17.6.1,26.3H50.9c-5.8,13-11.8,25.6-17.1,38.5-2.4,5.8-5.8,8.3-12.1,7.8-5.1-.4-10.3,0-15.5-.1s-7.5-3.5-5.5-8c8.5-18.8,17.2-37.4,25.8-56.1l.9-1.2v-.1c5.5-2.8,11.1-5.6,16.6-8.6,8.6-4.6,17.1-9.4,25.6-14.1-2,4.8-4.1,9.7-6.5,15.5C73,143.5,82.2,143.5,91.4,143.5Z" fill="#e6416d"/><path d="M1527.2,53.1c0-14.3-.1-28.5-.1-42.8,0-4.8,2-7.3,6.3-7.3q37.35,0,74.7.2V32.6h-49V71.1C1548.5,65.1,1537.9,59.1,1527.2,53.1Z" fill="#ee7409"/><path d="M557.1,36.7c-10.6-5.9-21.2-11.9-31.8-17.8C523.2,4.8,524.7,3,538.5,3.1c26.4.1,52.9,0,79.3.3,4.6,0,9.1,1.5,13.7,2.2l-.3,33a47.55,47.55,0,0,0-24.8-5.8c-14.3.2-28.6.1-42.9.1h-5.9C557.4,34.4,557.2,35.5,557.1,36.7Z" fill="#f39308"/><path d="M2546.6,106.2c-8.6-5-17.3-10-25.9-15,2.7-10.9,5.3-21.9,8.1-32.8,4.2-16.4,8.6-32.7,12.7-49.1,1.1-4.2,3.2-6.2,7.6-6.2,6,.1,12,0,18,.1s7.8,2.6,6.2,8.8c-3.2,11.7-6.4,23.3-9.7,35C2557.9,66.6,2552.2,86.4,2546.6,106.2Z" fill="#5cc1d3"/><path d="M1124,212.9c-1.2,3.8-3.1,6.2-7.7,6.3s-6.7-2.3-8.4-6.1c-12.1-26.9-24.4-53.8-36.6-80.7a31.9,31.9,0,0,1-1.1-3.3c8.7-5,17.4-10,26-15,6.5,14.3,13,28.5,20,44,2.6-5.3,4.8-9.7,7-14.1,0,21.2,0,42.5.1,63.7C1123.3,209.3,1123.8,211.1,1124,212.9Z" fill="#f39308"/><path d="M2858.7,31.9h-32V74.4c-1.5-.7-3-1.4-4.4-2.2-8.9-5-17.7-10-26.5-15,0-16-.1-31.9-.1-47.9,0-4.1,2.2-6.1,6.2-6.1,19,0,37.9.1,56.9.1C2858.7,12.8,2858.7,22.3,2858.7,31.9Z" fill="#fbbe67"/><path d="M1849,93.2c0-13.4-.1-26.9-.1-40.3,15.1-15.7,30.1-31.4,45.3-47a10.56,10.56,0,0,1,6.6-2.7c7-.4,14-.1,21-.1,3.1,0,5.8.6,6.9,3.8s.3,5.8-2.1,8.2c-4.1,4.1-8.2,8.2-12.3,12.4q-31.65,32.1-63.4,64.3A15.63,15.63,0,0,1,1849,93.2Z" fill="#00b2d0"/><path d="M1527.2,53.1c10.6,6,21.2,12,31.9,18v35.2h36.1c-9.1,5.4-18.2,10.9-27.4,16.3-13.5,7.8-27.1,15.5-40.6,23.3C1527.3,115,1527.2,84,1527.2,53.1Z" fill="#fbbe67"/><path d="M1776.2,142.2c9.1-5.1,18.2-10.1,27.3-15.1a51.56,51.56,0,0,1,4.9-2.1c0,24.2.1,48.5.1,72.7,0,3.6,0,7.3-.2,10.9-.2,4.8-2.7,7.3-7.5,7.4q-8.7.15-17.4,0c-4.6-.1-7.3-2.6-7.3-7.1C1776,186.7,1776.2,164.4,1776.2,142.2Z" fill="#0086c9"/><path d="M319.5,169.8H298.8c-5.8,13-11.8,25.8-17.2,38.7-2.3,5.5-5.6,8.1-11.7,7.7-5.3-.4-10.7,0-16-.1-5.1-.2-7.4-3.5-5.4-8,7.1-15.9,14.5-31.6,21.8-47.4,1.4-.7,2.9-1.4,4.3-2.2,13-7.4,26-14.9,39-22.3-.7,2.2-1.5,4.5-2.4,7.3h8.3Z" fill="#931c1b"/><path d="M1608.1,32.7V3.3c24.8-1.8,45.5,6,61.1,25.8,6.4,8.2,11,17.4,12,28-1.9,1-3.8,2.1-5.7,3.1-8.4,4.7-16.8,9.3-25.2,14,1.3-13.9-3.5-25.3-14.6-33.9C1627.5,34,1618,32.5,1608.1,32.7Z" fill="#0086c9"/><path d="M1151.1,81.1c5.6-12.8,11.1-25.5,16.7-38.3,5.1-11.5,10.4-23,15.3-34.6,1.6-3.8,4-5.3,8-5.2,6.5.2,13-.1,19.5.1,5.3.1,7.6,3.6,5.5,8.4-6.9,15.3-14,30.4-21.1,45.6-6.8,3.7-13.7,7.4-20.5,11.1Q1162.95,74.65,1151.1,81.1Z" fill="#ee7409"/><path d="M2166.9,1.4c26.1-4.4,49.7,2.1,71.4,16.3,3.9,2.5,4.8,6.4,2.4,10.4a150.89,150.89,0,0,1-8.5,12.9c-2.8,3.9-6.1,4.4-10.5,2.1-6.6-3.4-13.1-7.1-19.9-10.2-11.2-5.1-22.9-6.4-34.9-3C2167,20.3,2166.9,10.9,2166.9,1.4Z" fill="#e02816"/><path d="M1124,212.9a32.09,32.09,0,0,1-.7-5.3c-.1-21.2-.1-42.5-.1-63.7,5.3-12,10.7-24,16-35.9.4.3.7.7,1.1,1,8.2,4.9,16.3,9.8,24.5,14.7-11.6,25.5-23.2,51.1-34.8,76.6Z" fill="#ee7409"/><path d="M2690.2,58.8c-9.2,5.2-18.4,10.3-27.6,15.5-1.4.8-2.9,1.5-4.4,2.2,0-21.6-.1-43.2-.1-64.8,0-6.6,2.1-8.6,8.6-8.6,5.5,0,11-.1,16.5,0,4.9.1,7.2,2,7.2,6.9C2690.4,26.3,2690.3,42.6,2690.2,58.8Z" fill="#fbbe67"/><path d="M1096.2,114.1c-8.7,5-17.4,10-26,15-5.9-12.6-11.8-25.1-17.6-37.7-6.2-13.5-12.3-27.1-18.4-40.7a18.26,18.26,0,0,1-1.1-3.3c9.5,5.4,18.9,10.9,28.5,16.2,5.3,3,10.7,5.7,16.1,8.5C1083.9,86.1,1090,100.1,1096.2,114.1Z" fill="#fbbe67"/><path d="M1340.8,11.5c.9-2.3,1.8-4.6,2.8-6.9,1.3-3.1,3.7-4.4,7.1-4.5,3.6-.1,6.2,1.1,7.7,4.3,8.6,19.2,17.3,38.4,25.9,57.6-8.6,4.7-17.1,9.5-25.7,14.2-2.5-5.3-5-10.5-7.9-16.5-3.4,7-6.4,13.2-9.4,19.3-.1-4.6-.1-9.3-.2-13.9C1341,47.2,1340.9,29.4,1340.8,11.5Z" fill="#5cc1d3"/><path d="M2858.7,31.9V3.3c21.1,0,42.3-.1,63.4-.1,4.9,0,6.6,1.8,6.7,6.6s0,9.6,0,14.5c0,5.9-1.8,7.8-7.7,7.8-12.5.1-25,0-37.4,0C2875.3,32,2867,31.9,2858.7,31.9Z" fill="#5cc1d3"/><path d="M313.6,136.2c-13,7.4-26,14.9-39,22.3-1.4.8-2.9,1.5-4.3,2.2,5.1-11.4,10.1-22.8,15.2-34.1l32.1-70.2c.5-1,1.1-2,1.7-3,.1,19.2.1,38.5.2,57.7,0,3.8.1,7.6.2,11.4C317.6,127.1,315.6,131.6,313.6,136.2Z" fill="#ed6d98"/><path d="M1077.7,72.1c-5.4-2.8-10.8-5.6-16.1-8.5-9.5-5.3-19-10.8-28.5-16.2-5.6-12-11.3-24-16.6-36.1-2.1-4.8.3-8.1,5.7-8.2,6.7-.1,13.3,0,20-.1,3.4-.1,5.6,1.4,7,4.5C1058.6,29.1,1068.2,50.6,1077.7,72.1Z" fill="#e02816"/><path d="M955,94.7,918.1,73.4a43.73,43.73,0,0,0-4.9-2.3c-6.7-11.1-15.1-20.6-26.1-27.6,2-1.4,3.9-3,6-4.2,7.3-4.4,14.8-8.7,22.1-13.1,19.5,14.7,31.7,34.3,37.9,57.8C954.1,87.4,954.4,91.1,955,94.7Z" fill="#ee7409"/><path d="M1650.3,74.2c8.4-4.7,16.8-9.3,25.2-14,1.9-1,3.8-2.1,5.7-3.1a55.45,55.45,0,0,1-3.4,34.8c-5.7,13.4-14.7,24.2-27.7,31.4-10-5.7-20-11.5-30-17.2C1636.6,101.5,1646.8,91,1650.3,74.2Z" fill="#00b2d0"/><path d="M91.3,9.8c.1,17.1.2,34.1.3,51.2,0,5.6,0,11.3.1,16.9-4.3,9.7-8.7,19.4-13,29.2-8.3-4.7-16.7-9.5-25-14.2,5-11.2,9.9-22.4,14.9-33.5C76,42.8,83.7,26.3,91.3,9.8Z" fill="#f39308"/><path d="M2795.7,57.1c8.8,5,17.7,10.1,26.5,15,1.4.8,2.9,1.5,4.4,2.2V102h15.1c-4.1,2.6-8.2,5.4-12.4,7.9-11.2,6.4-22.4,12.7-33.6,19.1Z" fill="#ed6d98"/><path d="M631.3,38.5l.3-33c24.2,7.2,40,22.8,46.6,47.4-9.9,5.5-19.8,11-29.7,16.6C647.8,56.3,641.8,46.2,631.3,38.5Z" fill="#e02816"/><path d="M2166.9,1.4c0,9.5.1,19,.1,28.4-9.7,3.6-17.1,9.6-19.4,20.1-.8,3.6-.3,7.5-.4,11.3-10-5.7-20-11.3-30-17,6-23.3,21.8-36.2,44.4-42C2163.3,1.8,2165.1,1.7,2166.9,1.4Z" fill="#f39308"/><path d="M845.3,32c-15.3-8.9-30.7-17.8-46-26.8-1-.6-1.9-1.3-2.9-1.9,22.9.3,45.8.5,68.7,1,3.7.1,7.4,1.5,11.2,2.3L876,37.8C865.8,35.9,855.5,33.9,845.3,32Z" fill="#0086c9"/><path d="M2166.9,188.9c0,9.6-.1,19.2-.1,28.8a95.2,95.2,0,0,1-49.9-22.9c-3.3-2.9-3.8-6-1.5-9.7,2.7-4.2,5.2-8.5,8-12.6,3.1-4.4,7.1-5.1,11.1-1.9A116.66,116.66,0,0,0,2166.9,188.9Z" fill="#e6416d"/><path d="M1358.6,76.2c8.6-4.7,17.1-9.5,25.7-14.2,7.6,16.5,15.3,33.1,22.9,49.6,2.6,5.7,5.1,11.5,7.6,17.3l-39.6-22.5c-1-.5-2.1-.8-3.1-1.2h.2a9.43,9.43,0,0,0-1-1C1367,94.8,1362.8,85.5,1358.6,76.2Z" fill="#0086c9"/><path d="M1164.8,123.7c-8.2-4.9-16.3-9.8-24.5-14.7a5,5,0,0,1-1.1-1c4-9,8-17.9,12-26.9l23.4-12.9c6.8-3.7,13.6-7.4,20.5-11.1Z" fill="#f39308"/><path d="M2467.8,61a1.49,1.49,0,0,1-.9.2c-3.9-2.4-7.7-4.9-11.7-7.2-9.4-5.4-18.9-10.6-28.4-15.9,3.8-11.3,7.6-22.7,11.4-34,1.6-4.7,5.5-3.8,9.2-4.1,4.1-.3,6.7,1.2,8,5.1,3.1,9.1,6.4,18.2,9.5,27.3,1.1,3.3,2.1,6.6,3.2,10C2467.9,48.6,2467.9,54.8,2467.8,61Z" fill="#fbbe67"/><path d="M2426.8,38.1c9.5,5.3,19,10.6,28.4,15.9,4,2.3,7.8,4.8,11.7,7.2-5.9,3.4-11.8,6.9-17.7,10.3-.9-2.2-1.8-4.4-3.1-7.6-2,5-3.7,9-5.3,13-11.3,6.4-22.7,12.7-34,19.1,4.4-13.1,8.7-26.2,13.2-39.3C2422.1,50.4,2424.5,44.3,2426.8,38.1Z" fill="#f39308"/><path d="M53.6,92.9c8.3,4.7,16.7,9.5,25,14.2-3,7-6.1,14-9.1,20.9-8.5,4.7-17,9.5-25.6,14.1-5.5,3-11,5.7-16.6,8.6,3.4-7.9,6.7-15.8,10.3-23.7C42.8,115.6,48.2,104.2,53.6,92.9Z" fill="#ed6d98"/><path d="M2117.2,44.3c10,5.7,20,11.3,30,17,1.8,6.7,5.9,12.1,10.7,16.9-5,2.9-10.1,5.7-15.1,8.7-4.4,2.6-8.6,5.5-12.9,8.2C2116.7,80.3,2112.8,63.3,2117.2,44.3Z" fill="#ed6d98"/><path d="M319.5,169.8V143.5h19.1c15,8.8,30,17.5,45,26.3Z" fill="#0086c9"/><path d="M1340.8,11.5l.3,53.7c0,4.6.1,9.3.2,13.9-.8,2-1.7,4-2.5,6a57.87,57.87,0,0,1-6.7-3.1c-6-3.7-12-7.5-17.9-11.3,2-4.9,3.8-9.8,6-14.6Q1330.4,33.75,1340.8,11.5Z" fill="#fbbe67"/><path d="M2129.9,95c4.3-2.7,8.5-5.6,12.9-8.2,5-3,10-5.8,15.1-8.7,3.1,2.3,6.2,4.5,9.3,6.8-.1,11.3-.2,22.7-.3,34C2153,113.3,2140,106.3,2129.9,95Z" fill="#e6416d"/><path d="M2858.9,103.1c-.1-.3-.1-.7-.2-1,16.3-.1,32.5-.1,48.8-.2,3.7,0,6.2,1.8,6.4,5.5a144.3,144.3,0,0,1,0,17.4c-.4,4.6-2.3,5.5-8.3,5.2-2.2-1.4-4.4-2.9-6.7-4.2C2885.6,118.2,2872.2,110.7,2858.9,103.1Z" fill="#0086c9"/><path d="M876.1,37.8l.3-31.2a95.11,95.11,0,0,1,39,19.5c-7.4,4.4-14.8,8.7-22.1,13.1-2.1,1.3-4,2.8-6,4.2C883.5,41.6,879.8,39.7,876.1,37.8Z" fill="#f39308"/><path d="M1314.1,70.7c6,3.8,11.9,7.6,17.9,11.3a51.06,51.06,0,0,0,6.7,3.1c-.7,1.7-1.5,3.4-2.2,5.1-12.9,7.3-25.8,14.5-38.6,21.8l-3.9,2.1C1300.7,99.5,1307.4,85.1,1314.1,70.7Z" fill="#f39308"/><path d="M3074.7,102.1c-5.5,3-11,5.9-16.6,8.9-5,2.7-9.9,5.3-14.9,7.9.1-13.4.1-26.7.2-40.1,8.4,4.6,16.8,9.3,25.2,13.9,2,1.1,4.1,2.2,6.1,3.3C3074.8,98.1,3074.8,100.1,3074.7,102.1Z" fill="#00b1d0"/><path d="M403.2,181c12.3,7,24.5,14,36.8,20.9,2.2,1.2,4.5,2.1,6.7,3.2,4.3,7.4,2.3,10.9-6,10.9-5.7,0-11.4.4-17-.2-2.4-.2-5.6-2-6.6-4C412.2,201.7,407.8,191.3,403.2,181Z" fill="#0086c9"/><path d="M2858.9,103.1c13.3,7.6,26.7,15.2,40,22.8,2.3,1.3,4.5,2.8,6.7,4.2h-46.9C2858.7,121,2858.8,112,2858.9,103.1Z" fill="#00b1d0"/><path d="M2467.8,61c.1-6.2.1-12.4.2-18.6,2.6,7.6,5.3,15.2,7.9,22.8Z" fill="#60c2d4"/><path d="M27.3,150.8l-.9,1.2Q27,151.25,27.3,150.8Z" fill="#ed6d98"/><path d="M1372.1,105.2a9.43,9.43,0,0,0-1-1A4.74,4.74,0,0,1,1372.1,105.2Z" fill="#00b2d0"/><path d="M3130.5,9.7c-.1-4.4-2.1-6.6-6.3-6.6-28.5,0-16.1.1-44.6.1V32h42.6c6.4,0,8.3-1.9,8.3-8.3C3130.6,19,3130.7,14.4,3130.5,9.7Z" fill="#f39308"/><path d="M678.1,52.9c-9.9,5.5-19.8,11-29.7,16.6v.2a37.72,37.72,0,0,1-3.9,16.4c8.6,5,17.3,10,25.9,15C680.1,86.2,682.4,70.1,678.1,52.9Z" fill="#00b2d0"/><path d="M676.1,205.7c-9.9-18.3-19.8-36.5-29.7-54.8-3.7-6.8-7.3-13.7-11.1-20.8,14.7-6.5,27-15.3,35.1-29-8.6-5-17.3-10-25.9-15a37.31,37.31,0,0,1-14.1,15.1,22.17,22.17,0,0,1,1,5c.1,26,.1,52.1,0,78.1a26,26,0,0,1-.9,4.7c3.9,7.7,7.8,15.4,11.5,23.2,1.4,3,3.6,4,6.8,4,7.2-.1,14.3,0,21.5-.1C676.9,215.9,679.3,211.7,676.1,205.7Z" fill="#5cc1d3"/></svg>
