<svg xmlns="http://www.w3.org/2000/svg" viewBox="0 0 1207.41 349.06" width="1207" height="439"><path d="M0,174.3C.43,81.31,73.49.4,175,0c90.88-.36,174.25,71.56,174.09,175.58-.15,93-73.82,173-174.1,173.48C80.17,349.55.83,274.74,0,174.3Zm15-.06c.9,92.5,72.72,160,158.1,160.67,92.41.71,159.75-70.52,161.69-155.15,2.26-98.67-75.36-164.09-157.64-164.64C83.34,14.49,16,88.66,15,174.24Z" fill="#231f20"/><path d="M387.94,321.14c.69-3.47,1.28-6.38,1.91-9.51,2-.65,4-.33,5.93-.45,7.8-.52,11.87-4,13.48-11.54q9.45-44.37,18.89-88.76c.2-1,.4-2,.53-2.95.52-3.89-.82-5.86-4.68-6.93-3.38-.95-6.91-.73-10.56-1,.75-3.3,1-6.43,2.14-9.28,1.36-.66,2.72-.39,4-.39q26,0,52,0a82.25,82.25,0,0,1,21.76,2.48c10.15,2.78,18.67,7.63,21,18.91,2.48,12.12-.59,22.77-9.86,31.28-4.25,3.9-9.46,6.12-14.85,7.94-1.08.36-2.33.27-3.43,1.65,1.66.59,3.23,1.08,4.75,1.69,10.11,4.08,15.67,11.6,16.27,22.44,1.34,23.84-12.24,39.73-36.76,43.34A97.9,97.9,0,0,1,456,321.15q-32.47-.06-64.95,0ZM436,309.91c7.32,0,14,.42,20.56-.74,8.7-1.52,15-6.11,17.95-14.65a44.6,44.6,0,0,0,1.72-23.6c-1.35-6.68-5.77-10.83-12.45-11.91-5.44-.87-10.9-.63-16.8-.4C443.35,275.55,439.75,292.39,436,309.91Zm13.46-63c6.18.13,11.81.38,17.42-.64,7.34-1.33,12.46-5.36,15-12.33a35.11,35.11,0,0,0,1.21-20.61c-1.36-5.58-4.8-9.54-10.51-10.86a36.86,36.86,0,0,0-13.82-.22C455.66,217.1,452.62,231.69,449.46,246.89Z" fill="#231f20"/><path d="M733.36,199.9a32.22,32.22,0,0,0-17.76,6.22c-14.6,10.59-27.18,23.51-41.13,35.13,5.13,12.41,10.09,24.53,15.16,36.6,3.34,8,6.39,16.06,10.35,23.77,2.81,5.46,6.41,9.74,13.19,9.74.56,3.46-.84,6.36-1.15,9.73-8.84,0-17.49.63-26-1.19-7.62-1.62-13.16-6-16.89-12.88-3.6-6.6-6-13.68-8.78-20.63-3.21-8.19-6.33-16.42-9.58-24.85-4,1.58-6.9,4.69-10.73,6.82q-2.36,10.89-4.71,21.85c-.93,4.4-1.87,8.79-2.69,13.2-.69,3.73.49,5.52,4,6.89s7.26.56,11.14,1.21c0,3.19-1.15,6.12-1.72,9.38H583l2-9.77c2.4,0,4.56.16,6.68,0,7-.63,11-4.11,12.48-10.87,3.74-17.4,7.39-34.82,11.09-52.23q3.86-18.06,7.74-36.11c.28-1.3.55-2.61.72-3.93.49-3.91-.88-5.84-4.7-7-3.39-1-6.94-.59-10.56-1.12.75-3.21.94-6.35,2.21-9.4h62.44c.59,3.25-1,6-1.2,9.2-3.3.44-6.56.78-9.79,1.31-4.88.8-8.53,3.57-9.62,8.33-3.34,14.55-6.27,29.2-9.39,43.94,1.91-.18,2.67-1.4,3.64-2.26q16.5-14.53,33-29.13a58.93,58.93,0,0,0,8.93-9.41,18.3,18.3,0,0,0,2.7-4.75c1.54-4.46.4-6.5-4.31-7.52-.79-.17-1.61-.18-2.8-.3,0-3.24,1.07-6.15,1.83-9.35H735C735.51,193.75,734.08,196.72,733.36,199.9Z" fill="#231f20"/><path d="M779.5,247.17h41.1c-.06,4-1.24,7.36-2.1,11.19H777.08c-3.67,17.11-7.28,33.95-10.86,50.67,1,1.35,2.26.87,3.32.88,8,0,16,.07,24,0,11.29-.09,17.65-4.46,21.8-14.85,1-2.61,2.06-5.23,3.08-7.85h13.14c-2.8,11.34-5.54,22.4-8.34,33.67h-105a51,51,0,0,1,1.78-9.2c2.13-.81,4.15-.36,6.11-.52,7.53-.59,11.62-4,13.17-11.31q9.59-45.14,19.12-90.29c1.23-5.83-.17-7.9-6.14-8.9-2.77-.46-5.6-.53-8.64-.8.27-1.7.48-3.28.8-4.85s.72-2.9,1.14-4.53H844.9l-6.39,34a91.87,91.87,0,0,1-12.86,0c-.5-2.86.27-5.45.48-8.05.78-9.67-3.45-14.45-13.1-14.56-7.49-.08-15,0-22.49,0a7.65,7.65,0,0,0-1.47.44Z" fill="#231f20"/><path d="M1091,190.53h114c-2.11,11.88-4.17,23.45-6.27,35.25H1186.5c-.48-4.21.82-8.24,1-12.34.3-8.19-2.32-11.22-10.61-11.53-4.16-.16-8.33-.07-12.49-.08-1.16,0-2.31,0-3.88,0-1.74,8-3.48,15.9-5.17,23.82q-7.89,37.08-15.75,74.15c-1.84,8.67.06,11.07,9.11,11.43,1.78.07,3.65-.44,5.5.57-.54,3.07-.83,6.2-2,9.17h-62.86c.69-3.25,1.32-6.27,2-9.22,2.09-.93,4.1-.42,6-.57,7.54-.58,11.62-3.82,13.19-11.25q9-42.43,17.82-84.93c.87-4.2,2.17-8.34,2.37-13.12-6.43,0-12.75-.55-19,.34-5.54.79-9.07,4.53-11.45,9.43-2.19,4.5-3.37,9.38-5.25,14.15-3.92.56-7.87.1-12.38.26C1085.46,213.9,1088.22,202.19,1091,190.53Z" fill="#231f20"/><path d="M880.21,320.87a47.75,47.75,0,0,1,1.83-9.23c2.15-.73,4.16-.32,6.13-.47,7.51-.6,11.54-4.05,13.11-11.38q9.5-44.4,18.94-88.81c.21-1,.39-2,.51-2.95.51-3.94-.8-5.95-4.6-7-3.38-1-6.9-.8-10.68-1l2-9.52h100.7c-2.11,11.39-4.18,22.56-6.26,33.83-4.45.73-8.7.26-13.07.32.23-4,.6-7.47.6-10.94,0-7.15-3.76-11.41-10.85-11.66-9-.3-17.94-.07-27.43-.07-3.47,16.26-6.93,32.47-10.51,49.28h42.63c.62,4.08-1.28,7.24-1.25,11h-43.1c-2.11,4.26-2.37,8.64-3.34,12.81-2.11,9.07-4,18.2-5.82,27.33-1,5,.39,7.05,5.29,8.34,3.1.82,6.3.16,9.72.79,0,3.15-1.08,6.08-1.73,9.35Z" fill="#231f20"/><path d="M572.12,8.19V84.76H546.61c-1.13-.7.26-2.43-1.21-3.73H530.3V55.12H546V38c-13.5,3.72-23.62,21.95-25.84,47h-28c1.49-24.66,8.12-46.54,27-63.12,9.72-8.52,21.38-12.71,34.12-13.68C559.36,7.8,565.52,8.19,572.12,8.19Z" fill="#231f20"/><path d="M575,311.64,573,321H510.2c.06-3.28,1.15-6.19,1.73-9.52,2.26-.1,4.38-.14,6.49-.31,7.25-.61,11.3-4.08,12.79-11.13q9.6-45.13,19.13-90.29c1.25-5.92-.09-8-6-9-2.76-.48-5.6-.56-8.73-.85a48.3,48.3,0,0,1,1.93-9.3H600.2c.45,3.27-1.25,6-1.21,9.27-3.31.58-6.47.39-9.55,1-5.67,1.18-9.16,4.37-10.36,10.06Q573.16,239,567.2,267.05q-3.75,17.81-7.42,35.65c-1,4.73.35,6.62,5.05,8C568.07,311.62,571.47,310.74,575,311.64Z" fill="#231f20"/><path d="M1083.14,190.47c.72,3.26-1.22,5.95-1,9-3,1.22-6,.65-9,1.19-6.08,1.15-9.81,4.36-11.1,10.53-4.55,21.81-9.21,43.6-13.8,65.41q-2.73,12.93-5.37,25.89c-1,5,.34,7,5.32,8.23,3.09.79,6.3.14,9.68.76-.16,3.21-1.14,6.17-1.83,9.4H993.22a37.89,37.89,0,0,1,2.08-9.8c2.19,0,4.35.16,6.48,0,7-.65,11-4.14,12.45-10.91,3.72-17.4,7.36-34.82,11-52.22q3.93-18.56,7.9-37.09c.17-.81.35-1.63.48-2.45.71-4.41-.69-6.37-5.1-7.54-3.24-.85-6.61-.5-10.06-1,.76-3.24.94-6.38,2.23-9.42Z" fill="#231f20"/><path d="M1005.87,88.07c-17.36,0-32.45-10.88-36.49-25.8-5.08-18.76,6.56-38.38,25.82-43,11.51-2.79,22.53-1.42,32.3,5.78,11.62,8.56,16.94,20.13,14.17,34.4C1038.82,74,1029.08,82.74,1015.1,87A27.25,27.25,0,0,1,1005.87,88.07ZM1005,44.13c-5.75.13-10.71,4.94-10.72,10.4,0,5.67,5.23,10.59,11.16,10.46,5.75-.13,10.71-4.94,10.73-10.4C1016.23,49,1010.93,44,1005,44.13Z" fill="#231f20"/><path d="M575.5,21.33c16-1.39,30.78.55,43.72,12v-12H641v63.5H619.43a50.7,50.7,0,0,0-5.59-22.23,39.9,39.9,0,0,0-16.38-17.13V84.8h-22Z" fill="#231f20"/><path d="M778.42,84.94V21h23.46c4.49,0,9,0,13.47,0a21.7,21.7,0,0,1,14.48,5.81c7.24,6.49,7.42,16,.46,22.83-.69.68-1.47,1.29-2.2,1.93.41,1.8,2.11,2.12,3.15,3.1,5.65,5.31,7.39,11.84,5.25,19.09-2.08,7-7.81,10.69-14.63,10.94C807.45,85.3,793,84.94,778.42,84.94Zm22.84-22.81c.09,2.63-.3,4.72.33,6.85,2.85,0,5.47.09,8.08,0,2.07-.11,3.48-1.3,3.44-3.45s-1.49-3.26-3.55-3.34C807,62.06,804.35,62.13,801.26,62.13Zm8.18-23.84h-8V45c2.82,0,5.43.32,7.9-.26C811.69,42.69,811.75,40.73,809.44,38.29Z" fill="#231f20"/><path d="M1044.48,21.14c12.13,0,23.93-.34,35.72.09,13,.48,23.25,8.39,26.18,19.4,3.75,14.11-2.85,27.07-16.48,32.17A32.87,32.87,0,0,1,1078.2,75c-3.8,0-7.61,0-11.79,0v9.77H1044.8C1044.08,80.68,1043.82,32.92,1044.48,21.14Zm22,20V55c3.19,0,6.16.18,9.11,0,4.75-.34,7.62-3.13,7.58-7s-2.91-6.49-7.76-6.81C1072.61,41,1069.78,41.1,1066.5,41.1Z" fill="#231f20"/><path d="M644.41,85.06V21.6c.75-1,2-.53,3.11-.54,8.49,0,17-.11,25.48,0a32,32,0,0,1-.08,64C663.6,85.16,654.28,85.06,644.41,85.06Zm21.06-43.84V64.73c11.72,1,18.36-3.06,18.68-11.31S677.87,40.69,665.47,41.22Z" fill="#231f20"/><path d="M965,85H943.43V52.4c-2.76-.61-5.19-.25-8-.3V84.79h-21.9V21.33h21.55V33.7c2.77.62,5.2.25,8,.31V21.32H965Z" fill="#231f20"/><path d="M864.42,84.7V65.14h18.29C867.36,52.23,863.28,36,871.64,21h38.42V40.87H892.68a36.17,36.17,0,0,1,14.26,24.95,28.92,28.92,0,0,1-3.72,18.88Z" fill="#231f20"/><path d="M736.15,54.48V84.8H714.48V54.72l-21.16-33.4h24.32c2.25,3.9,4.55,7.91,7,12.17,3.26-3.89,4.75-8.57,7.68-12.34h24.12Z" fill="#231f20"/><path d="M839.49,21.18h21.1c.85,3.6,1.13,55,.31,63.66H839.49Z" fill="#231f20"/><path d="M836.83,139.15c3.75-10.28,7.14-19.59,10.55-29a59,59,0,0,1,12.16.09c-1.12,2.63-3.9,1.51-4.82,3.42a271.7,271.7,0,0,0-.12,29.66c1.11,1.75,3.85.7,4.75,3.27a51.2,51.2,0,0,1-14,.17c-.15-2.76,2.82-1.9,3.49-3.61V116.77c-1.47.66-1.42,2.3-1.9,3.64q-4,11-7.93,22.05c-.73,2-1.33,4.16-4.62,4.71-3.76-10.12-7.57-20.39-11.38-30.66l-.43.23v25.18c.68,2.9,3.45,2.28,3.65,4.88-4.76.27-9.32,1.1-14.07-.75-3.85,1.85-6.23,1.31-8.88-2.67s-4.86-7.95-7.25-11.9a4.46,4.46,0,0,0-4.51,0c-.14,3.87-.52,7.82.09,10.78,1.15,2.81,4,1.64,4.9,4.61a109.14,109.14,0,0,1-15.13,0c-.14-2,.8-2,1.57-2.24s1.53-.54,2.69-.95V114.57c-1.12-2.8-3.62-1.63-4.4-3.31.16-.4.25-.93.38-.94,6.61-.4,13.21-1,19.78.5,4.3,1,6.64,3.55,7.1,7.86a9.1,9.1,0,0,1-4.86,9.59l-2.44,1.41c2.41,3.81,4.71,7.65,7.2,11.34,2.89,4.29,4.29,4.61,9.69,2.74,1.23-3.41,1.61-22.45.64-29.29-.78-2.45-3.3-1.72-4.54-3.1,2.48-1.71,3.81-1.84,12-1.11Zm-45.2-26.49V127.9c3.79.27,7.64,1.13,10-2.59a9,9,0,0,0,.06-10C799.39,111.76,795.48,112.45,791.63,112.66Z" fill="#f0d90d"/><path d="M1205.76,119.14c-4.53-.16-2.23-4.58-4.78-5.5-3.58-1.6-7.33-.72-11.31-.82v12.76c4,2,8.58-1.13,12.3,1.77.14.12,0,.63-.07,1.19-3.8,1.19-7.83,0-12.09.77V144c4.23.28,8.33.53,12.34-.35,2.89-.78.77-5.58,4.83-5.66.89,2.8.1,5.58.29,9.08-11.37-.07-22.6.34-33.86-.3-3.88-.54-5.37-3.83-7.18-6.78s-3.6-5.95-5.3-8.77a6.29,6.29,0,0,0-5.25.45v10.36c.36,2.18,4.19,1.82,6.18,4.57a68.24,68.24,0,0,1-15.69.17c.52-2.82,3.3-1.77,4.5-3.26.76-9.73.44-19.51.26-29.21-.7-2.38-3.63-1.47-4.66-3,.09-.44.11-.74.17-.75,7-1,14.13-1.35,21.09.47,3.49.91,5.52,3.45,5.94,7.22s-.46,7-3.59,9.26c-1.05.78-2.24,1.37-3.6,2.18,2.37,3.75,4.6,7.45,7,11,2.94,4.39,4.15,4.73,9.65,3.16,1.58-3.69,1.79-25.7.43-30-.87-2.1-3.46-.87-4.07-2.84,3-1.33,18.32-1.71,26-.67C1205.85,113.13,1205.69,115.92,1205.76,119.14Zm-48.93-6.2v14.94c10.28.68,13.14-3.25,9.81-12.95C1163,112.39,1162,112.2,1156.83,112.94Z" fill="#f0d90d"/><path d="M717.66,143.68V113.46c-1.21-1.67-3.77-.45-4.42-2.39,2.94-1.36,17.57-1.76,26-.73a29.41,29.41,0,0,1,.35,8.46c-4.44.88-2-4-4.31-4.8-3.47-2.14-7.3-1-11.15-1.17-1.32,2.26-.53,4.63-.67,6.87s0,4.62,0,7.13c4.23,1.57,8.89-.61,12.72,2-4,2.3-8.31.59-12.69,1.77.23,4.43-.73,8.85.88,13.1,1.24,1.8,4.2,0,5.27,3.05-7.63,1.16-15-.22-23.48.1-5.77-2.89-7-10.61-11.5-15.63a7.2,7.2,0,0,0-4.76.28c-.87,3.11-.16,6.43-.39,9.51.82,3.14,3.91,3.3,6.07,4.75-3,1.72-10.16,1.94-15.3.57.53-2.31,3.31-1.24,4.57-3.6V114.53c-.77-2.41-3.32-2-4.68-2.83.55-2.16,1.74-1.73,2.62-1.73,4.5,0,9-.06,13.49.08,6.1.19,9.93,2.64,11,6.79,1.38,5.37-.28,8.75-6,12.24a7.72,7.72,0,0,0-.87.81c2.28,3.61,4.5,7.31,6.9,10.89C710.19,145.16,711.4,145.49,717.66,143.68Zm-27-16.07c10,1.54,13.4-2.94,9.83-12.89-2.77-2.51-6.13-2.41-9.83-2.09Z" fill="#f0d90d"/><path d="M561,146.65a18.61,18.61,0,0,1-2.31.44c-.66,0-1.31-.1-2.13-.17l-18.45-28.26a132.63,132.63,0,0,0-.36,24.54c.89,1.94,3.8.7,4.61,3.5-4.46.75-8.71.44-13.15.16,1.33-2,1.5-2.17,4.78-3.6.09-9.66.15-19.69-.4-29.71-1.17-1.69-3.51-.79-4.78-2.62,3.34-1.84,6.59-.58,9.92-1L557,137.87V114.79c-.68-3-3.75-1.83-5-4.36,4.71-.9,9-.34,13.44-.4-.25,2.94-2.91,1.78-4.33,3.1Z" fill="#f0d90d"/><path d="M1099.23,110c4.63.2,9-.51,13.48.53-.68,2.58-3.47,1-4.45,3-.75,10.6-.57,21.38-.66,32.24-1,.89-2.15,1.8-3.94,1.27l-18.41-28.23c-.74,8.39-1.2,16.65-.26,24.87,1.21,1.45,3.67.41,4.54,3.31a87.25,87.25,0,0,1-13.43,0c.75-2.84,3.21-1.86,4.61-4V114c-.43-2-3.21-1.26-4.82-3,3.34-1.92,6.59-.61,9.93-1,5.87,9,11.73,18,18.14,27.82V113.83C1100.6,111.94,1100.6,111.94,1099.23,110Z" fill="#f0d90d"/><path d="M902.79,143.37V114.61c-1.19-2.69-3.49-1.84-4.55-3.23,2.4-1.76,2.73-1.79,9.81-1.11l17.86,27.49V114.37c-.54-2.49-3.45-1.53-5.3-4.06,5.1-.63,9.45-.31,14.12-.29-.56,3-3.23,1.68-4.2,3.19-1.62,5.3-.74,10.8-.89,16.21s0,10.67,0,16.14a3.58,3.58,0,0,1-3.89,1.48l-19-29v24.68c1.3,2.33,3.75,1.29,4.47,3.17-2.8,1.58-8.27,1.74-12.94.35C898.64,144,901.19,145,902.79,143.37Z" fill="#f0d90d"/><path d="M744.18,127.5c.21-1.72-.1-4.14.79-6.62,2.9-8.06,8.28-12,16.43-11.63,7.78.38,12.92,4.91,14.89,13a27.54,27.54,0,0,1,0,12.35c-2.07,9.95-9.85,13.81-17.65,13.37-8.23-.47-14.3-8-14.48-16.75C744.16,130.21,744.18,129.21,744.18,127.5Zm14,17.41c6.45.19,10.25-2.09,11.79-7.62a32.36,32.36,0,0,0,0-17.7c-1.36-4.83-4.79-7.41-9.37-7.38s-7.83,2.65-9.37,7.42c-1.25,3.89-1.09,7.87-.95,11.84C750.39,137.24,752,142.3,758.13,144.91Z" fill="#f0d90d"/><path d="M599.1,115.76a8.31,8.31,0,0,1-1.43,2,13.33,13.33,0,0,1-2.56,1.23c-.43-.31-.86-.45-.92-.69-1-3.56-3-6-6.92-6-4.24,0-8.09,1.29-10,5.35a25.15,25.15,0,0,0-.12,21.27c1.42,3.26,4.29,5,7.87,5.35a27.69,27.69,0,0,0,7.72-.27c.89-3.16.33-6.44.33-9.33-.84-2.25-3.08-2.17-4.58-3.32,3-1.64,7.41-1.88,13.55-.91.63,2.35-2.18,1.56-2.66,2.92-1.33,3.7-.17,7.6-1,11.89-6.73,3.13-13.81,3.9-20.77.34-6.49-3.33-8.4-9.45-8.51-16.36-.12-7.66,1.91-14.23,9.25-17.93,5.16-2.59,10.63-2.57,16.05-.9A6,6,0,0,1,599.1,115.76Z" fill="#f0d90d"/><path d="M876.54,110.36a6,6,0,0,1,4.5,0c4,10.87,8.05,21.91,12.11,33,.84,1.56,3.4.77,4,3.19-4.89,1.17-9.67.3-14.62.5.15-3.09,3.4-1.82,3.91-3.8.49-2.91-1.16-5.3-2-8-4.42-.72-8.71-.3-13.14-.27a14.8,14.8,0,0,0-2.76,7.75c1,2.48,3.75,1.29,4.87,4.11-4.52.57-8.73.25-13.47.19,8.17-8.14,9.07-18.9,13.32-28.1C874.54,116.07,875.5,113.08,876.54,110.36Zm1.18,5.53c-1.82,5.74-4.25,10.55-5.38,15.9h10.91Z" fill="#f0d90d"/><path d="M621.65,113.43c-1.19-1.7-3.8-.4-4.67-3.22,7.89.07,15.56-1.9,22.85,1.57,4.31,2,5.2,6.25,4.71,10.66-.55,5-3.48,8.43-8.2,9.54-2.73.64-5.58.79-8.62,1.19-.38,3.53-.93,7.09.35,10.28,1.67,1.54,3.81,1,5.37,2.16-2.56,1.79-10.14,2.12-16.2.83.25-2.53,3.2-1.32,4.41-3.76Zm5.9,16.54c4,.16,7.87.66,10-3.18,2-3.67,2.24-7.8-.11-11.36s-6.1-3.14-9.91-2.68Z" fill="#f0d90d"/><path d="M674.27,110.34a26.19,26.19,0,0,1,.32,8.4c-4.27,1.08-2.4-3.08-3.86-4.47-4.07-2.57-8.44-1.44-13-1.16v12.44c4.17,1.54,8.76-.07,13.3,1.07-.39,4-3.43,2-5.18,2.35-2.23.44-4.61-.28-7.16.5-.48,4.72-.19,9.47-.19,14.57a68.84,68.84,0,0,0,11.84,0c2.62-1.16,2.84-3.4,3.26-5.4a2.12,2.12,0,0,1,2.6-.26c.45,2.65.06,5.4-.06,8.1-5.14.94-23.89.83-27.92-.16.51-2.34,3.28-1.3,4.57-3.62v-28c-1-2.82-3.65-2-4.8-3.64C651.31,109.71,666,109.34,674.27,110.34Z" fill="#f0d90d"/><path d="M992.13,118.71c-.44-1.45-.92-3-1.48-4.84-4.09-2-8.32-1.12-12.72-.83-.92,4.2-.24,8.17-.49,12.39,4.31,1.7,8.89.11,12.93,1,.83.74.67,1.39.48,2.22-3.82,1-7.85,0-12,.67-.88,4.74-.09,9.5-.48,14.55a48,48,0,0,0,12.08.21c2.66-1.39,2.84-3.66,3.1-5.35a2.62,2.62,0,0,1,2.53-.46c.82,2.67-.08,5.44.29,8.53h-28c.15-2.85,3.07-1.68,4.41-4v-28c-.8-2.87-3.53-1.85-4.53-3.53,2.74-1.51,15.35-1.95,26-.94.79,2.67.47,5.45.62,7.89A2,2,0,0,1,992.13,118.71Z" fill="#f0d90d"/><path d="M1048.8,113.84c-1.47-1.87-3.74-1.15-4.78-2.71,3.23-1.41,17.42-1.8,26.26-.82a26.35,26.35,0,0,1,.41,8.14,2,2,0,0,1-2.67.1l-1.18-4.39c-4.07-2.53-8.46-1.26-13.07-1.12V125.5c4.06,1.73,8.83-.14,13.18,1.58-4,1.17-7.88,2.42-12.26,2V144a62.45,62.45,0,0,0,11.67.05c2.66-1.2,2.79-3.49,3.28-5.44a2,2,0,0,1,2.5-.21v8.34h-28c.62-2.75,3.38-1.72,4.67-4Z" fill="#f0d90d"/><path d="M414.33,112.16c.41-.69.81-1.39,1.31-2.24,4.47.28,9-.48,13.43.47.19,1.66-.68,1.69-1.51,1.78a2.62,2.62,0,0,0-2.44,1.63c1.49,5,5,9.41,7.51,15,2.3-5.56,6.42-9.56,6.8-15.21-.86-2.06-3.5-.65-4.22-2.47,2.83-1.51,7.51-1.7,13.07-.41-7.49,5.52-9,14.85-14.94,21.32v9.33c.89,3.26,4.67,2.54,6.57,4.63-3.71,1.4-12,1.5-16.62.23.86-2.2,3.31-1.19,5.06-3,.62-4.69,1.68-10-1.46-15.14-2.51-4.11-4.92-8.29-7.28-12.5-1.21-2.15-2.65-3.74-5.36-3.52Z" fill="#f0d90d"/><path d="M1132.3,143.59a13.52,13.52,0,0,1,4.83,2.7c-4.38,1.29-12.84,1.16-16-.29.81-2.14,3.51-.78,4.88-3.18V113a11.44,11.44,0,0,0-6.61.28c-2.9.8-.74,5.37-4.65,6-.85-3.12-.32-6-.28-9.06h29.23a31.11,31.11,0,0,1,.35,8.58c-4.88.83-1.51-5.27-5.06-5.27a10,10,0,0,0-6.7-.49Z" fill="#f0d90d"/><path d="M414.25,112.08c-1.67,1.63-.38,3.78-.82,5.47a4.44,4.44,0,0,1-3,1.25c-.26-.31-.7-.63-.84-1-2-6-7.68-7.41-12.46-3.18a9.61,9.61,0,0,0-2.87,4.6,30.23,30.23,0,0,0-.25,16.76c2.23,7.87,9.61,10.55,16.51,6.21.95-.59,1.4-2,3.17-1.81,1.07,3.18-.81,4.7-3.32,5.9-9.91,4.74-20.58-.71-22.79-11.87A26.64,26.64,0,0,1,388.1,121c3.41-10.73,14.73-15.06,24.5-9.35.55.32,1,.86,1.73.5Z" fill="#f0d90d"/><path d="M964.94,113c1,3.28,0,5.15-3.17,5.85-.29-.27-.88-.55-.95-.92-.66-3.32-2.41-5.59-5.94-5.67-3.72-.09-6.85,1.37-8.62,4.86-2.59,5.12-2.56,10.67-1.78,16.1,1.55,10.79,10,14,18.76,7.47a1.27,1.27,0,0,1,1.65-.19c1.11,2.54-.55,4.23-2.61,5.31-7,3.67-17.48,2.54-21.61-5.9-3.79-7.73-3.92-15.63.4-23.22C945.77,108.47,957.62,106.67,964.94,113Z" fill="#f0d90d"/><path d="M474.82,112.88a5.34,5.34,0,0,1,.1,4.2,4.25,4.25,0,0,1-3.3,1.69c-.29-.24-.7-.4-.75-.65-.72-3.18-2.24-5.68-5.83-5.84a9,9,0,0,0-8.49,4.24,12.89,12.89,0,0,0-1.61,4.14,30.91,30.91,0,0,0,0,14.81c2.15,8.36,9.8,11.21,17,6.4.79-.53,1.15-1.71,2.77-1.56,1.23,2.59-.31,4.33-2.32,5.42-7.16,3.89-17.43,2.39-21.43-5.2-4.13-7.84-4.34-15.85-.05-23.63C455.52,108.57,467.21,106.64,474.82,112.88Z" fill="#f0d90d"/><path d="M1040.72,140.12c1.28,2.93-.36,4.63-2.43,5.71-7,3.63-17.68,2.69-21.85-6.34-3.51-7.61-3.61-15.38.64-22.78,4.71-8.23,16.56-10,23.79-3.75,1.19,3,.43,5.09-3.08,5.92-.31-.28-.9-.56-1-.93-.64-3.33-2.4-5.59-5.93-5.67-3.73-.09-6.85,1.37-8.62,4.86-2.59,5.13-2.56,10.67-1.78,16.11,1.55,10.79,10,14,18.76,7.46A6.86,6.86,0,0,1,1040.72,140.12Z" fill="#f0d90d"/><path d="M488.4,144a66.19,66.19,0,0,0,12,.06c3-2,2.6-4.93,3.13-7.31.74-.88,1.52-.86,2.58-.45.64,3.33-.13,6.75.12,10.49H478.15c.44-2.82,3.28-1.73,4.57-4.12V115c-.89-3.2-3.69-2-4.94-4.64a88.64,88.64,0,0,1,15.31-.21c.2,1.93-.7,2-1.5,2.1a4.13,4.13,0,0,0-2.66,1.6c-1.2,4.48-.34,9.65-.5,14.75S488.4,138.53,488.4,144Z" fill="#f0d90d"/><path d="M525.41,110.81c-.85,2.15-3.17.8-3.86,2.51-1.4,3.55-1.67,24.74-.44,30,.52,1,1.58,1.12,2.51,1.4s1.66.35,1.46,2c-4.82.79-9.74.27-14.9.33.35-3.09,3.26-1.94,4.52-4.48V114.45c-1-2.42-3.37-1.85-4.82-3.11C513.06,109.63,520.48,109.43,525.41,110.81Z" fill="#f0d90d"/><path d="M225.12,174.75H214.76c-19.07,17.38-26.45,60.49,7,84-2,1.31-3.48-.13-4.85-1.1-13.15-9.31-20.41-22.11-21.74-38.1-1.31-15.83,3.46-29.85,13.54-42.1l1.91-2.34c-6.71-1.15-13,0-19.49-.71q.06-50.44-1-100.27c1.33-1.46,2.76-1,4-.93,15.49.41,31,.64,46.45,1.85a42.6,42.6,0,0,1,13.94,3.53c9.28,4.12,13.79,11.6,14.75,21.44a34.83,34.83,0,0,1-.48,10.44,18.8,18.8,0,0,1-9.3,13.09c7.74,4.7,12.59,11,13.35,19.66.71,8.18.9,16.36-4.93,23.42,2.64,2.19,6,2.78,8.75,4.59,15.89,10.52,23.14,28,19.24,47.82-4.06,20.63-21.36,39.17-46.21,39.69-20.4.43-36.31-12.66-41.32-31.24-5.45-20.24.56-37.33,15.93-51.32A7,7,0,0,0,225.12,174.75Zm19.19-.5c-1.77.55-2.9.82-4,1.25a42.36,42.36,0,0,0-25.42,45.16,35.87,35.87,0,0,0,44.9,29.58c22.58-6.18,35.37-30.88,28.76-52.13-4.58-14.71-19.89-27.37-36.68-24.7,2.14,13.57,5.79,26.83,8.37,40.32-2.25,1-4.38,2.17-7.18,2.25C250.17,202.11,247.29,188.44,244.31,174.25Zm-8-33.9c-5.41-1.21-8.76-1.16-13,.17.05,3-.38,6.15.45,9.28,2.17.79,4.33.48,6.43.46,2.28,0,4.6.44,7-.37C239.15,146.6,239.14,143.48,236.3,140.35Zm.25-29.59c1.67-5.57.83-8.92-2.82-9.48s-7.42-1-11.23.12c.26,3.31-.13,6.43,1,9.83,3.75,0,7.53,0,11.31,0A7.44,7.44,0,0,0,236.55,110.76Z" fill="#231f20"/><path d="M185.15,73v101.2H153.6c-1.12-1.54.08-3.53-.94-5.62H134.45V134.71c6.29-.86,12.61-.16,19.24-.7V113.27c-3.14.16-5.54,2.23-7.92,4C135,125.53,129,136.84,125.26,149.54a72.48,72.48,0,0,0-3.2,19.64c0,1.62,1,3.83-.78,4.08,2.1,2.52,4.22,5.3,6.59,7.84,17.71,19,17.29,49.38-1,66.62-13.35,12.61-33.12,15.16-50.48,6.25-24.68-12.67-34.66-44.58-20.25-68.28,6.3-10.37,15.49-16.65,27.15-19.53,1-.24,2-.39,2.93-.63a18.13,18.13,0,0,0,1.84-.71,146.08,146.08,0,0,1,1.06-16.16c3.29-25.28,13.62-46.38,35.53-60.71A90,90,0,0,1,157.4,75.19,122.29,122.29,0,0,1,185.15,73Zm-81.7,101.76c-14.34-4.91-31.07.86-39.64,12.48-15.19,20.6-6.19,48.86,13.84,59.66,17.93,9.68,37.95,5.28,48.68-10.49,9.19-13.5,8.74-31.49-.73-45.42-3.66-5.37-8.07-9.95-14.28-12.76a30.49,30.49,0,0,0-2.7,6.75c.47,1.32,2.38,1.36,1.74,2.92-1,.71-1.8-.7-3-.1q-5.76,14.87-11.72,30.24c-2.57-1.38-5.15-1.69-7.08-3.79C93.44,201.25,98.38,188.18,103.45,174.78Z" fill="#231f20"/><path d="M56.27,172.24c-21.62,31-16.65,58.6,9.61,83.54-8.42-1.25-21.73-20.7-24.74-35.32C36.71,198.88,47.1,177.17,56.27,172.24Z" fill="#231f20"/><path d="M271.43,188.36c2.91-1,4,1.4,5.19,3,10.07,12.86,8.73,31.16-3.19,43-5.43,5.4-11.64,9.31-21.08,8.63,12.65-4,21-11.23,24.7-22.86C280.67,208.71,279.05,198,271.43,188.36Z" fill="#231f20"/><path d="M110.75,188.17c10.06,5.38,18.16,22.89,11.79,38.22-5.26,12.68-19.19,20-31.72,17.28,14.12-1.82,23.54-8.41,27.48-21.59C122.06,209.49,118.33,198.45,110.75,188.17Z" fill="#231f20"/></svg>
