<svg xmlns="http://www.w3.org/2000/svg" viewBox="0 0 200 200"><path d="M53,31.54A52.75,52.75,0,0,0,.2,84.29c0,11.38,7.1,30,17.6,48.39,9.77,17.08,22.47,33.85,35.16,44.25,12.68-10.4,25.38-27.17,35.15-44.25,10.51-18.36,17.6-37,17.6-48.39A52.75,52.75,0,0,0,53,31.54M170.64,21a29.16,29.16,0,0,0-29.16,29.16c0,6.31,4,16.69,9.82,26.93,5.38,9.41,12.36,18.66,19.34,24.47,7-5.81,14-15.06,19.35-24.47,5.86-10.24,9.81-20.62,9.81-26.93A29.16,29.16,0,0,0,170.64,21Zm0,46.7a14.36,14.36,0,1,1,10.15-4.21A14.27,14.27,0,0,1,170.64,67.7Zm-8.51,35.69a1,1,0,0,1-.94-1,1,1,0,0,1,1-.93h.88l.34,0h.34l.34,0h.06a1,1,0,0,1,.9,1,1,1,0,0,1-1,.9h0l-.33,0h-.32l-.33,0h-.85Zm-11.26,1a1,1,0,0,1-.36-1.89l.2,0,.33-.06.33-.06.32,0,.33-.06.33,0,.09,0a1,1,0,0,1,.29,1.9h-.08l-.32.06-.31,0-.32,0-.32.06-.31.06Zm-10.8,3.32a1,1,0,1,1-.75-1.77l.06,0,.3-.13.31-.13.3-.12.3-.12.31-.12.23-.1a1,1,0,0,1,.69,1.8l-.22.08-.29.12-.3.12-.29.12-.29.12-.29.12Zm-9.85,5.53a1,1,0,0,1-1.11-1.57l.27-.18.26-.19.27-.19.27-.18.28-.19.26-.17a1,1,0,0,1,1.06,1.6l-.26.17-.26.18-.26.18-.26.18-.26.18Zm-8.44,7.5a1,1,0,0,1-1.36.06,1,1,0,0,1-.06-1.35l.14-.16.23-.24.22-.25.23-.23.23-.25.22-.23.07-.07a1,1,0,0,1,1.37,1.35l-.06.06-.22.22-.22.24-.22.23-.21.23-.22.23Zm-6.62,9.15a1,1,0,0,1-1.67-1l.13-.23.17-.29.17-.29.17-.29.18-.29.18-.29a1,1,0,1,1,1.63,1l-.17.28-.17.28-.16.28-.17.28-.16.28Zm-4.49,10.36a1,1,0,1,1-1.83-.57l.09-.31L109,139l.11-.33.11-.33.11-.33.08-.23a1,1,0,0,1,1.81.64l-.07.21-.11.32-.11.32-.1.32-.11.32Zm-3.87,11a1,1,0,0,1-1.75-.8l.1-.22.14-.3.13-.3.13-.3.13-.3.13-.3h0a1,1,0,1,1,1.78.74h0l-.13.32-.13.31-.14.31-.14.31-.14.31Zm-6,10.07a1,1,0,0,1-1.55-1.14l0,0,.18-.26.19-.25.18-.26.18-.25.19-.26.15-.22a1,1,0,1,1,1.58,1.08l-.35.5-.19.27-.18.26-.2.27-.19.26Zm-8,8.58a1,1,0,0,1-1.26-1.44l.19-.17L92,168l.23-.2.22-.2.23-.21.22-.2.08-.08a1,1,0,0,1,1.32,1.4l-.09.08-.24.22-.23.21-.47.42-.24.21Zm-9.7,6.59a1,1,0,1,1-.89-1.71l0,0,.27-.14.26-.15.27-.14.26-.14.26-.15.27-.15h0a1,1,0,0,1,1.31.35,1,1,0,0,1-.35,1.31l0,0-.28.16-.27.15-.27.15-.28.15-.28.14-.27.15Zm-11,4.13a1,1,0,0,1-.47-1.86l.17,0,.3-.08.29-.07.29-.08.3-.08.29-.09.18-.05A1,1,0,1,1,74.1,180l-.2.06-.3.09-.3.08-.31.08-.31.08-.3.08ZM60.58,182a1,1,0,0,1,0-1.92h1.88a1,1,0,1,1,.09,1.92h-2ZM53,114.81a24.82,24.82,0,1,1,17.56-7.27A24.8,24.8,0,0,1,53,114.81Z" fill-rule="evenodd"/></svg>