<svg xmlns="http://www.w3.org/2000/svg" viewBox="0 0 448 41.6" width="448" height="42"><path d="M0,32.7H432.3L431,41.6H0Z" fill="#cb2027" fillRule="evenodd"/><path d="M55.8,8.8h-9L42,16.7,39.8,8.8H32.2l-2.7,5.6h3.3l1.3,5L26.6,30.7h9.1l5.2-7.5,2,7.5h9.5L48.7,19.5Zm15.1,0-3,4.5.8-4.5H59.5l-2.9,5.7h1.8L54,39.6h9.2l1.6-8.9H76.7l3.8-3.8L83,12.6,80.5,8.8ZM71.7,25H68.1l-3,4.5,2.6-15h5.8ZM92.4,8.8l-3.8,3.8L86.1,26.9l2.5,3.8h18.5L110,25H95.7l.7-4.2h14.4l1.4-8.2-2.5-3.8Zm10.4,7.6H99.1l-2.5,3.3,1.1-6.5h5.6Zm27.1-7.6-3,4.5.8-4.5h-9.2l-2.9,5.8h1.8l-2.8,16.1h9.3l2.8-16.2h9.1l3.4-5.7ZM152.4,4h-7.6l-6.1,10.4h2l-2.3,13.1,2.1,3.2h11.2l3.3-5.5h-6.7l1.9-10.8h4.9l3.3-5.6h-6.8l.8-4.8ZM186,.1l-3.7,5.8L183.4.1H173l-3.8,6.8h2.6l-4.2,23.8H193l3.8-3.8,1.7-9.6-2-2.7,2.7-2.5,1.4-8.3L198.2,0H186Zm.8,23.7h-5.1l-3.6,5.8,2-11.2h7.7l-1,5.4Zm2-12.2h-5.1l-3.4,5.5L182.1,7h7.6l-.9,4.6Zm14.6,2.9h1.8l-2.8,16.2h9.2l3.8-21.9h-9.2Zm3.2-7.6h9.2l1-5.6h-9.2Zm30.1,2.3-7.8,9.5L232.2.1H223l-2.9,5.7h1.8l-4.4,25h9.2l1.8-10.4,3.4,10.4h10.6l-4.9-11L246,9.3h-9.3Zm15.8-.4-3.8,3.8-2.5,14.3,2.5,3.8h18.5l2.9-5.7H255.7l.7-4.2h14.4l1.4-8.2-2.5-3.8Zm10.4,7.6h-3.7l-2.5,3.3,1.1-6.5h5.6ZM303.8.1l-3.7,5.8L301.2.1H290.8L287,6.9h2.6l-4.2,23.8h10.4l2.1-12.1,6.5,12.1h11.1l-6.9-12.1h4.2l3.8-3.8,1.9-11L316,.1Zm2.8,11.7h-4.9l-3.6,5.8L299.9,7h7.6l-.9,4.8Zm19.2-3L322,12.6l-2.5,14.3,2.5,3.8h18.5l2.9-5.7H329l.7-4.2h14.4l1.4-8.2L343,8.8Zm10.4,7.6h-3.7L330,19.7l1.1-6.5h5.6Zm27-7.6-3,4.5.8-4.5h-9.2l-2.9,5.7h1.8l-4.4,25.1h9.2l1.6-8.9H369l3.8-3.8,2.5-14.3L373,8.8ZM364,25h-3.6l-3,4.5,2.6-15h5.8Zm16.1-12.4-2.5,14.3,2.5,3.8h9.7l3-4.5-.8,4.5h9.2L405,8.8H383.8l-3.7,3.8Zm8.9,1.9h3.6l3-4.5L393,25h-5.8Zm20.3,0h1.8l-2.8,16.2h9.2l3.8-21.9h-9.2Zm3.2-7.6h9.2l1-5.6h-9.2Zm26.3,1.9-3,4.5.8-4.5h-9.2l-2.9,5.8h1.8l-2.8,16.1h9.3l2.8-16.2h9.1l3.4-5.7ZM5.4,0,1.6,6.8H4.2L0,30.7H22.3l4-7.1H12l.9-5.1H23.7l3.9-6.8H16.7l-3.6,5.8L14.9,7H26.2l4-7H8.7" fill="#ffcb06"/></svg>
