<svg xmlns="http://www.w3.org/2000/svg" viewBox="0 0 512 512"><path d="M471.38,72.58C444.88,43.83,408.51,28,369,28c-29.55,0-56.62,9.34-80.45,27.77a164.79,164.79,0,0,0-32.52,34,164.31,164.31,0,0,0-32.53-34C199.65,37.34,172.58,28,143,28,103.49,28,67.12,43.83,40.61,72.58,14.43,101,0,139.8,0,181.87c0,43.3,16.14,82.94,50.78,124.74C81.77,344,126.32,382,177.9,425.93c17.61,15,37.58,32,58.31,50.15a30.06,30.06,0,0,0,39.58,0c20.73-18.13,40.7-35.16,58.32-50.18,51.58-44,96.12-81.9,127.11-119.3C495.87,264.81,512,225.17,512,181.87,512,139.8,497.57,101,471.38,72.58Z"/></svg>