<svg xmlns="http://www.w3.org/2000/svg" viewBox="0 0 661.5 199.1"><path fill="#ffffff" d="M70.3,3.1l-.5,21.6C60,23,48,21.4,40.8,21.4c-12.4,0-17.1,4.9-17.1,13.9v4.2c0,7.2,2.2,9.9,12.5,13.4l17.4,5.7C72,64.5,78.9,73.8,78.9,93.7v3.8c0,23.7-12.2,36.7-45.1,36.7-7.2,0-19.1-1.7-30.5-4.1l.3-22c10.6,2.7,22.5,4.4,29.6,4.4,16.7,0,22.2-5.1,22.2-14.2V93.2c0-6.9-2.8-10.6-10.6-13.1L25.7,73.9C6.5,67.4,0,58.9,0,38.6v-2C0,13,11.9,0,40.2,0,48,0,59.8,1.4,70.3,3.1"/><rect fill="#ffffff" x="95.4" y="2.4" width="23.8" height="129.5"/><polygon fill="#ffffff" points="193.2 24.1 193.2 131.9 169.7 131.9 169.7 24.1 134.1 24.1 134.1 2.4 228.9 2.4 228.9 24.1 193.2 24.1"/><polygon fill="#ffffff" points="338.8 131.9 316.8 27.8 294.8 131.9 265.8 131.9 237.6 2.4 262.5 2.4 281.1 107.6 302.7 2.4 330.7 2.4 352.4 107.4 371.1 2.4 396 2.4 367.8 131.9 338.8 131.9"/><polygon fill="#ffffff" points="433.7 24.1 433.7 55.4 478.1 55.4 478.1 76.9 433.7 76.9 433.7 110.1 482.1 110.1 482.1 131.9 410 131.9 410 2.4 482.1 2.4 482.1 24.1 433.7 24.1"/><polygon fill="#ffffff" points="574.5 110.5 574.5 131.8 502.3 131.8 502.3 2.3 526.1 2.3 526.1 110.5 574.5 110.5"/><polygon fill="#ffffff" points="661.5 110.5 661.5 131.8 589.4 131.8 589.4 2.3 613.1 2.3 613.1 110.5 661.5 110.5"/><path fill="#ffffff" d="M122.4,149.5l-.2,5.6a56.89,56.89,0,0,0-10.2-1.2c-6.8,0-9.6,2.5-9.6,9v21.4c0,6.4,2.7,9,9.6,9a59.11,59.11,0,0,0,10.2-1.2l.2,5.8a59.11,59.11,0,0,1-10.3,1.2c-11.8,0-15.9-5.1-15.9-15.1V163.5c0-10.2,4.3-15.1,15.9-15.1a70.53,70.53,0,0,1,10.3,1.1"/><polygon fill="#ffffff" points="155.1 181.4 155.1 198.2 148.8 198.2 148.8 181.4 134.6 149.2 141.8 149.2 152 174.6 162.2 149.2 169.3 149.2 155.1 181.4"/><path fill="#ffffff" d="M206.6,149.5l-.1,5.6a56.89,56.89,0,0,0-10.2-1.2c-6.8,0-9.6,2.5-9.6,9v21.4c0,6.4,2.7,9,9.6,9a59.11,59.11,0,0,0,10.2-1.2l.1,5.8a59.11,59.11,0,0,1-10.3,1.2c-11.8,0-15.9-5.1-15.9-15.1V163.5c0-10.2,4.3-15.1,15.9-15.1a72,72,0,0,1,10.3,1.1"/><polygon fill="#ffffff" points="230.1 192.6 249.5 192.6 249.5 198.2 223.8 198.2 223.8 149.2 230.1 149.2 230.1 192.6"/><rect fill="#ffffff" x="264.9" y="149.2" width="6.4" height="48.9"/><polygon fill="#ffffff" points="296.1 156.9 296.1 198.2 289.9 198.2 289.9 149.2 300 149.2 315.9 190.5 315.9 149.2 322.1 149.2 322.1 198.2 312.3 198.2 296.1 156.9"/><path fill="#ffffff" d="M369.3,149.9l-.1,5.6a69,69,0,0,0-12.8-1.6c-7,0-9.6,2.5-9.6,8.9v21.7c0,6.4,2.6,9,9.6,9a50.4,50.4,0,0,0,8.7-1V176h-9.3v-6h15.7v26.4c-4.1,1.3-9.9,2.8-15.1,2.8-11.8,0-15.9-5.1-15.9-15.1V163.6c0-10.5,4.6-15.1,15.9-15.1a62.89,62.89,0,0,1,12.9,1.4"/><path fill="#ffffff" d="M436.5,149.5l-.1,5.6a56.89,56.89,0,0,0-10.2-1.2c-6.8,0-9.6,2.5-9.6,9v21.4c0,6.4,2.7,9,9.6,9a59.11,59.11,0,0,0,10.2-1.2l.1,5.8a59.11,59.11,0,0,1-10.3,1.2c-11.8,0-15.9-5.1-15.9-15.1V163.5c0-10.2,4.3-15.1,15.9-15.1a70.53,70.53,0,0,1,10.3,1.1"/><polygon fill="#ffffff" points="460 192.6 479.5 192.6 479.5 198.2 453.7 198.2 453.7 149.2 460 149.2 460 192.6"/><path fill="#ffffff" d="M523.6,182.7c0,10.5-5.3,16.4-15.9,16.4-10.3,0-15.9-5.4-15.9-16.2V149.3h6.4v34.4c0,6.5,3.5,9.8,9.6,9.8s9.6-3.3,9.6-9.8V149.3h6.3l-.1,33.4Z"/><path fill="#ffffff" d="M564.6,172.8c4.8-2.1,6.9-5.9,6.9-10.8v-1.6h0c0-7.2-5.3-12-16.1-12-5.3,0-9.7.2-13.2.3v50c7.2.4,9.1.5,13.7.5,12.2,0,17.5-5.7,17.5-13.5v-1.6C573.5,178.1,570.1,174,564.6,172.8Zm-16-18.8h0c2.1-.2,4-.2,5.8-.2,7.7,0,10.7,2.7,10.7,7.5v1.3c0,5.2-3.1,8.2-9.2,8.2h-7.3Zm18.5,31.1c0,5-3.3,8.4-11.2,8.4-2.4,0-4.9-.2-7.3-.4V175.9h7.8c7.5,0,10.8,2.8,10.8,7.7l-.1,1.5Z"/></svg>