<svg xmlns="http://www.w3.org/2000/svg" viewBox="0 0 390.67 107.09"><path d="M35.11,13.69v5.94H29.6V34.32h5.51v6H29.6v8.67H22.5V40.27h-10v8.67h-7V40.27H0v-6H5.52V19.63H0V13.69H5.52V5h7v8.67h10V5h7.1v8.67ZM12.54,34.32h10V19.63h-10Z" fill="#049949"/><path d="M60.22,14l-.14,6.17a30.37,30.37,0,0,0-7-.93c-4.23,0-5.8,1.35-5.8,3.58v.5c0,1.58.71,2.29,2.72,3.22l6.66,3.08c4.16,1.94,6.17,4.88,6.17,8.61v1.5c-.08,6.59-3.58,10.1-12.4,10.1a39.44,39.44,0,0,1-9.46-1.5l.29-6.38a35.75,35.75,0,0,0,9.1,1.58c4.23,0,5.45-1.08,5.45-3.59v-.57a3.68,3.68,0,0,0-2.58-3.87l-6.67-2.86c-4.37-2-6.3-4.73-6.3-8.39v-1c.14-6.6,3.72-10.11,12.39-10.11A35.49,35.49,0,0,1,60.22,14Z" fill="#fede00"/><path d="M76.64,18.34c2.44-3.43,5.45-5.23,8.81-5.23,6,0,9.32,4.16,9.32,12V48.94H87.68V26c0-4.66-1.65-6.31-4-6.31s-5.15,1.94-7,5.17V48.94H69.55V0h7.09Z" fill="#fede00"/><path d="M128.32,26.23V36.69c0,8.24-4,13.11-12.82,13.11s-12.83-4.87-12.83-13.11V26.23c0-8.24,4-13.12,12.83-13.12S128.32,18,128.32,26.23Zm-18.63-.43V37.12c0,4.37,2.15,6.66,5.74,6.66s5.73-2.29,5.73-6.66V25.73c0-4.38-2.15-6.6-5.73-6.6S109.69,21.43,109.69,25.8Z" fill="#fede00"/><path d="M162.67,48.94l-6.52-28.45-6.59,28.45H141.1l-7.95-35h7.45l5.16,28.38L151.85,14h8.6l6.09,28.38L171.7,14h7.45l-8,35Z" fill="#fede00"/><path d="M203.11,48.94V44.07c-2.58,3.8-5.73,5.73-9.1,5.73-5.52,0-9.1-3.8-9.1-12V14H192V36.69c0,4.66,1.51,6.52,3.8,6.52s4.87-1.86,6.81-5.09V14h7.09v35Z" fill="#049949"/><path d="M236.67,14l-.15,6.17a30.29,30.29,0,0,0-7-.93c-4.23,0-5.81,1.35-5.81,3.58v.5c0,1.58.72,2.29,2.73,3.22l6.66,3.08c4.16,1.94,6.16,4.88,6.16,8.61v1.5c-.07,6.59-3.58,10.1-12.39,10.1a39.44,39.44,0,0,1-9.46-1.5l.29-6.38a35.76,35.76,0,0,0,9.09,1.58c4.23,0,5.45-1.08,5.45-3.59v-.57a3.67,3.67,0,0,0-2.58-3.87L223,32.61c-4.37-2-6.31-4.73-6.31-8.39v-1c.14-6.6,3.73-10.11,12.4-10.11A35.56,35.56,0,0,1,236.67,14Z" fill="#049949"/><path d="M95.64,108.54l4.44-13.26H97.43l-9.67-35H95.5l6.8,29.81,8.6-29.81h7.39l-15.63,48.23Z" fill="#fede00"/><path d="M148,72.57V83c0,8.24-4,13.11-12.83,13.11S122.39,91.27,122.39,83V72.57c0-8.25,4-13.12,12.82-13.12S148,64.32,148,72.57Zm-18.63-.44V83.46c0,4.37,2.15,6.66,5.73,6.66s5.73-2.29,5.73-6.66V72.06c0-4.37-2.15-6.59-5.73-6.59S129.41,67.76,129.41,72.13Z" fill="#fede00"/><path d="M174.5,95.28V90.41c-2.58,3.8-5.73,5.73-9.1,5.73-5.52,0-9.1-3.8-9.1-12V60.31h7.09V83c0,4.65,1.51,6.52,3.8,6.52s4.87-1.87,6.81-5.09V60.31h7.09v35Z" fill="#fede00"/><path d="M207.63,59.59V67.4a13.53,13.53,0,0,0-2.66-.21c-3.08,0-5.8,1.5-7.81,4.87V95.28h-7.09v-35h6.59v5.23c2.51-3.8,5.73-6.09,9.39-6.09A8.75,8.75,0,0,1,207.63,59.59Z" fill="#fede00"/><path d="M232.22,60.31l-.15,6.16a30.77,30.77,0,0,0-7-.93c-4.23,0-5.8,1.36-5.8,3.59v.5c0,1.57.71,2.29,2.72,3.22l6.66,3.08c4.16,1.94,6.17,4.87,6.17,8.6V86c-.08,6.59-3.59,10.1-12.4,10.1a39.44,39.44,0,0,1-9.46-1.5l.29-6.38a35.7,35.7,0,0,0,9.1,1.57c4.22,0,5.44-1.07,5.44-3.58v-.57a3.67,3.67,0,0,0-2.58-3.87l-6.66-2.87c-4.37-2-6.31-4.73-6.31-8.38v-1c.15-6.59,3.73-10.1,12.4-10.1A34.86,34.86,0,0,1,232.22,60.31Z" fill="#049949"/><path d="M258.82,60.31v6h-9V85.18c0,3.44,1.36,4.8,4.23,4.8a27.87,27.87,0,0,0,5.87-.72l.14,6a28.18,28.18,0,0,1-6.16.86c-7.74,0-11.18-3.15-11.18-11.39V66.26h-4.8v-6h4.88L243.91,51h5.88v9.32Z" fill="#049949"/><path d="M283.34,59.59V67.4a13.53,13.53,0,0,0-2.66-.21c-3.08,0-5.8,1.5-7.81,4.87V95.28h-7.09v-35h6.59v5.23c2.51-3.8,5.73-6.09,9.39-6.09A8.66,8.66,0,0,1,283.34,59.59Z" fill="#049949"/><path d="M296.89,49.28v2c0,2.3-1.57,3.66-4.44,3.66s-4.37-1.36-4.37-3.66v-2c0-2.44,1.58-3.73,4.37-3.73S296.89,46.84,296.89,49.28Zm-7.88,46v-35h7.1v35Z" fill="#049949"/><path d="M330.22,71.63V84c0,7.81-4.16,12.18-10.53,12.18a16.77,16.77,0,0,1-7.53-2.43v14.83h-7.09V60.31h6.59v4.87c2.44-3.65,5.59-5.73,9.17-5.73C326.64,59.45,330.22,63.39,330.22,71.63Zm-18.13-.71V87.54A10.54,10.54,0,0,0,318,89.83c3.44,0,5.09-2.15,5.09-6.66V72.42c0-4.8-1.65-6.59-4-6.59S314,67.69,312.09,70.92Z" fill="#049949"/><path d="M362.7,72.42v7.67H344.86v3.58c0,4.37,1.94,6.16,6.74,6.16a56.29,56.29,0,0,0,9.46-1.14l.14,6.16a58.94,58.94,0,0,1-10,1.29c-9.75,0-13.47-4.08-13.47-13.11V72.42c0-8.31,4-13,12.39-13C358.26,59.45,362.7,64,362.7,72.42Zm-17.91-1v3.22h10.82v-3c0-4.15-2.15-6.16-5.45-6.16S344.79,67.55,344.79,71.42Z" fill="#049949"/><path d="M388.09,60.31l-.15,6.16a30.77,30.77,0,0,0-7-.93c-4.23,0-5.8,1.36-5.8,3.59v.5c0,1.57.71,2.29,2.72,3.22l6.66,3.08c4.16,1.94,6.17,4.87,6.17,8.6V86c-.08,6.59-3.59,10.1-12.4,10.1a39.44,39.44,0,0,1-9.46-1.5l.29-6.38a35.7,35.7,0,0,0,9.1,1.57c4.22,0,5.44-1.07,5.44-3.58v-.57a3.67,3.67,0,0,0-2.58-3.87l-6.66-2.87c-4.37-2-6.31-4.73-6.31-8.38v-1c.15-6.59,3.73-10.1,12.4-10.1A34.86,34.86,0,0,1,388.09,60.31Z" fill="#049949"/><path d="M114.8,113.72c0,2.24-1,3.32-3.24,3.32a6.78,6.78,0,0,1-1.45-.16v-1.74a7.53,7.53,0,0,0,1.41.13c.79,0,1.24-.37,1.24-1.41V103.45h2Z" fill="#fff"/><path d="M124.52,110.34v3c0,2.34-1.14,3.73-3.65,3.73s-3.64-1.39-3.64-3.73v-3c0-2.35,1.14-3.73,3.64-3.73S124.52,108,124.52,110.34Zm-5.3-.13v3.22c0,1.25.62,1.9,1.63,1.9s1.63-.65,1.63-1.9v-3.24c0-1.24-.61-1.87-1.63-1.87S119.22,109,119.22,110.21Z" fill="#fff"/><path d="M129.11,103.71v.57c0,.65-.44,1-1.26,1s-1.24-.39-1.24-1v-.57c0-.69.45-1.06,1.24-1.06S129.11,103,129.11,103.71Zm-2.24,13.09v-10h2v10Z" fill="#fff"/><path d="M138.61,110v6.77h-2v-6.53c0-1.3-.45-1.79-1.15-1.79a2.57,2.57,0,0,0-2,1.47v6.85h-2v-10h1.87v1.45a3.22,3.22,0,0,1,2.65-1.69C137.66,106.61,138.61,107.79,138.61,110Z" fill="#fff"/><path d="M149.63,116.8v-1.39A3.2,3.2,0,0,1,147,117c-1.57,0-2.59-1.08-2.59-3.42v-6.77h2v6.46c0,1.33.43,1.86,1.08,1.86a2.54,2.54,0,0,0,1.93-1.45v-6.87h2v10Z" fill="#fff"/><path d="M159.17,106.85l0,1.75a8.92,8.92,0,0,0-2-.26c-1.2,0-1.65.39-1.65,1v.14c0,.45.2.65.77.92l1.9.87a2.63,2.63,0,0,1,1.75,2.45v.43c0,1.87-1,2.87-3.52,2.87a10.93,10.93,0,0,1-2.69-.43l.08-1.81a10.3,10.3,0,0,0,2.59.45c1.2,0,1.55-.31,1.55-1v-.17a1.06,1.06,0,0,0-.74-1.1l-1.89-.81a2.55,2.55,0,0,1-1.8-2.39v-.28c0-1.88,1.06-2.87,3.53-2.87A10.21,10.21,0,0,1,159.17,106.85Z" fill="#fff"/><path d="M171.65,110v6.79h-1.9v-1.49a3.23,3.23,0,0,1-2.57,1.73c-1.54,0-2.56-1.12-2.56-3.08v-.55a2.81,2.81,0,0,1,3.09-2.87,13.15,13.15,0,0,1,1.92.22v-1c0-1.06-.47-1.45-1.53-1.45a18.34,18.34,0,0,0-2.71.32v-1.75a20.32,20.32,0,0,1,2.81-.32C170.63,106.61,171.65,107.56,171.65,110Zm-5,3.59v.2c0,.94.45,1.43,1.06,1.43s1.35-.55,1.94-1.59v-1.47a10.08,10.08,0,0,0-1.45-.12A1.4,1.4,0,0,0,166.63,113.6Z" fill="#fff"/><path d="M179.05,106.85v1.69h-2.57v5.38c0,1,.39,1.37,1.21,1.37a7.46,7.46,0,0,0,1.67-.21l0,1.72a8.22,8.22,0,0,1-1.76.24c-2.2,0-3.17-.9-3.17-3.24v-5.26H173.1v-1.69h1.39l.32-2.65h1.67v2.65Z" fill="#fff"/><path d="M191.75,116.8l-1.85-8.1L188,116.8h-2.4l-2.26-10h2.12l1.46,8.07,1.74-8.07h2.44l1.73,8.07,1.47-8.07h2.12l-2.26,10Z" fill="#fff"/><path d="M205.72,116.8l-1.85-8.1L202,116.8h-2.4l-2.27-10h2.12l1.47,8.07,1.73-8.07h2.45l1.73,8.07,1.47-8.07h2.12l-2.26,10Z" fill="#fff"/><path d="M219.69,116.8l-1.85-8.1L216,116.8h-2.4l-2.27-10h2.12l1.47,8.07,1.73-8.07h2.45l1.73,8.07,1.47-8.07h2.12l-2.27,10Z" fill="#fff"/><path d="M234.6,106.85l0,1.75a8.92,8.92,0,0,0-2-.26c-1.2,0-1.65.39-1.65,1v.14c0,.45.2.65.77.92l1.9.87a2.63,2.63,0,0,1,1.75,2.45v.43c0,1.87-1,2.87-3.53,2.87a11,11,0,0,1-2.69-.43l.09-1.81a10.3,10.3,0,0,0,2.58.45c1.21,0,1.55-.31,1.55-1v-.17a1.05,1.05,0,0,0-.73-1.1l-1.9-.81a2.56,2.56,0,0,1-1.79-2.39v-.28c0-1.88,1.06-2.87,3.53-2.87A10.21,10.21,0,0,1,234.6,106.85Z" fill="#fff"/><path d="M239.57,103.71v.57c0,.65-.45,1-1.26,1s-1.24-.39-1.24-1v-.57c0-.69.44-1.06,1.24-1.06S239.57,103,239.57,103.71Zm-2.24,13.09v-10h2v10Z" fill="#fff"/><path d="M246.83,106.85v1.69h-2.57v5.38c0,1,.39,1.37,1.21,1.37a7.46,7.46,0,0,0,1.67-.21l0,1.72a8.22,8.22,0,0,1-1.76.24c-2.2,0-3.18-.9-3.18-3.24v-5.26h-1.36v-1.69h1.39l.32-2.65h1.67v2.65Z" fill="#fff"/><path d="M256.25,116.8l-1.85-8.1-1.88,8.1h-2.4l-2.27-10H250l1.47,8.07,1.73-8.07h2.45l1.73,8.07,1.47-8.07h2.12l-2.26,10Z" fill="#fff"/><path d="M269.45,110.29v2.18h-5.08v1c0,1.25.55,1.76,1.92,1.76a16.35,16.35,0,0,0,2.69-.33l0,1.75a16.29,16.29,0,0,1-2.84.37c-2.77,0-3.83-1.16-3.83-3.73v-3c0-2.36,1.14-3.68,3.53-3.68S269.45,107.89,269.45,110.29Zm-5.1-.28v.92h3.08v-.86c0-1.18-.62-1.75-1.55-1.75A1.48,1.48,0,0,0,264.35,110Z" fill="#fff"/><path d="M271.55,116.8V102.88h2V116.8Z" fill="#fff"/><path d="M276.12,116.8V102.88h2V116.8Z" fill="#fff"/><path d="M290.79,106.87l0,1.79a9.22,9.22,0,0,0-2-.26c-1.27,0-1.86.65-1.86,1.92v3a1.69,1.69,0,0,0,1.86,1.94,8.8,8.8,0,0,0,2-.27l0,1.8a10.88,10.88,0,0,1-2.18.26c-2.5,0-3.72-1.28-3.72-3.75v-2.93c0-2.41,1.18-3.75,3.75-3.75A9.66,9.66,0,0,1,290.79,106.87Z" fill="#fff"/><path d="M298.63,106.87l0,1.79a9.39,9.39,0,0,0-2-.26c-1.27,0-1.86.65-1.86,1.92v3a1.69,1.69,0,0,0,1.86,1.94,9,9,0,0,0,2-.27l0,1.8a11,11,0,0,1-2.18.26c-2.51,0-3.73-1.28-3.73-3.75v-2.93c0-2.41,1.18-3.75,3.75-3.75A9.8,9.8,0,0,1,298.63,106.87Z" fill="#fff"/></svg>