<svg xmlns="http://www.w3.org/2000/svg" xmlns:xlink="http://www.w3.org/1999/xlink" viewBox="0 0 70 79.2"><defs><clipPath id="a"><path d="M70.1,19.5c-9.4-2.9-9.5-14.2-9.5-14.2C48.5,5.7,41.7.1,35.1.1S21.7,5.7,9.6,5.3c0,0-.2,11.3-9.5,14.2,0,0,4.4,8.6,3.1,17.7s1.1,27.5,31.9,42C65.9,64.8,68.3,46.4,67,37.2S70.1,19.5,70.1,19.5Z" fill="none"/></clipPath></defs><g clip-path="url(#a)"><path d="M-170.5,0h285V15.8h-285Z" fill="#00803d"/><path d="M-170.5,15.8h285V31.6h-285Z" fill="#fdc300"/><path d="M-170.5,31.7h285V47.5h-285Z" fill="#00803d"/><path d="M-170.5,47.5h285V63.3h-285Z" fill="#fdc300"/><path d="M-170.5,63.4h285V79.2h-285Z" fill="#00803d"/></g><path d="M64.7,22.6c-7.9-2.5-8.1-12.1-8.1-12.1-10.2.3-16-4.4-21.5-4.4s-11.3,4.7-21.5,4.4c0,0-.2,9.6-8.1,12.1,0,0,3.7,7.3,2.7,15s.9,23.3,27,35.5c26.1-12.2,28.1-27.8,27-35.5s2.5-15,2.5-15Z" fill="#1d1d1b" stroke="#1d1d1b" stroke-miterlimit="10" stroke-width="0.5"/><path d="M48.6,27a3.1,3.1,0,0,1-.6-2.3c0-.3-.6-1.6-.4-.5.1.6-.5.9-1,1.1a6.15,6.15,0,0,1-1.1.3A3.44,3.44,0,0,0,43,26.9a5.7,5.7,0,0,0-1.1,2.8,7,7,0,0,0,.1,2.5s-.8.8-1.9-.3c.6-.4,1.7-1.2,1.3-2.2,0,0-.4.9-1.6.4.4-.5,1.3-1.7.6-2.5,0,0-.2,1.1-1.7.8.1-.5.4-1.8-.4-2.2,0,0,.3,1-1.1,1.3,0-.5,0-.9-.5-1.2,0,0,.2.9-1,1.1a.75.75,0,0,0-.5.1h-.1a4.18,4.18,0,0,0-1,.4,3,3,0,0,1-1.6.5h-.4c-.1,0-.3.1-.2.3v.1a.9.9,0,0,1,.1.5v1.2c0,.1,0,.2.1.2s.2.1.3.2.2.4.3.7a2.66,2.66,0,0,1-1.2-.3.37.37,0,0,1-.2-.5c0-.6.4-.4.3-.2,0,0,.3-.2-.1-.4s-.7.4-.4.8a1.42,1.42,0,0,1-.2-.6v-.9a.66.66,0,0,0-.5.4,2.92,2.92,0,0,0-.2.9,2,2,0,0,0,.6,1.4l-.5.1a3.36,3.36,0,0,0,2.6.4c0,.2-.1.4-.1.6l-.3-.2a1.25,1.25,0,0,1-.4,1.3.6.6,0,0,0,.4-.1c.1-.1.3,0,.4.1s.1.1.2.1a6.15,6.15,0,0,0,1.3-.1c.3,0,.6-.1.9-.1s.3,0,.2.2a.63.63,0,0,1-.5.6,1.09,1.09,0,0,1-.5.1,3,3,0,0,0-1.3.2,7.84,7.84,0,0,1-1.4.5h-.2a6.66,6.66,0,0,1-3.1-3.5,5.71,5.71,0,0,0-1.3-2.1,13.72,13.72,0,0,0-1.8-1.6c-.5-.4-.6-.6-.4-1.2a4.1,4.1,0,0,0,.1-1.1.37.37,0,0,0-.1-.3c-.1-.2-.2-.3-.2-.5a.35.35,0,0,0-.1-.2,1.37,1.37,0,0,0-1.3-.8,1.74,1.74,0,0,1,.5,1.4c-.2,0-.3,0-.3.2a2.65,2.65,0,0,0-.6-.5c-.3-.1-.5-.2-.8-.3a1.22,1.22,0,0,0-1.2.5c.7.2,1,.4,1.1.7-.1.1-.1.1-.3,0s-.3-.1-.4.1a.35.35,0,0,1-.2.1,2,2,0,0,0-1.1.3,1.79,1.79,0,0,0-.5.7.76.76,0,0,1,.4-.1c.1,0,.3-.1.4.1a.35.35,0,0,0,.2.1h.3a.22.22,0,0,1,.2.2.1.1,0,0,0,.1.1,2.35,2.35,0,0,0,.8.2.57.57,0,0,1,.7.4V29a.6.6,0,0,1-.6.3h-.3a.63.63,0,0,0-.5.6,2.23,2.23,0,0,1-1.4,0v.2a2,2,0,0,0,1.5,1,1.57,1.57,0,0,0,1.3-.4.86.86,0,0,1,1.3.2c0,.1.6,1.8.6,1.9l.1-.1c.1-.3.1-.3.3-.1s.1.1.1.2a8.48,8.48,0,0,0,0,1.6l.3-.4c.2.2.1.3.1.5,0,.4-.1,1.4-.1,1.5.1-.1.1-.2.2-.3.1-.3.2-.3.4-.2h.1a3.89,3.89,0,0,0-.2,1.5c.1-.2.2-.3.3-.5s.3,1.3.3,1.5l.3-.5c.1.1.3.2.4.4a6.38,6.38,0,0,0,.8,1.4l.1.1L30,38.2a2,2,0,0,0,.9-.9l.3-.4s.1-.1.1,0,.1.1,0,.1l-.3.4a2.84,2.84,0,0,1-1,.9L27.3,40l-3.9,2.7a5.07,5.07,0,0,1-1.5.7,1.63,1.63,0,0,1-1.5-.3,1.76,1.76,0,0,1-.5-.4.76.76,0,0,0-.4-.2c-.2-.1-.4,0-.4.3a1.5,1.5,0,0,0-1.4,1.1c.2-.1.4-.1.6-.2h.1a.35.35,0,0,1,.2.1.76.76,0,0,1,.4.2l.6.3c.1,0,.3.1.4.1l-.7.2a3.58,3.58,0,0,0-1.1.4c-.3.1-.3.3-.1.5-.5.8-.6,1.5-.2,1.8,0-.1.1-.2.1-.3l.1-.1c.1,0,.1-.1.2-.1a2.09,2.09,0,0,1,.6-.4,2,2,0,0,0,.8-.4,2.65,2.65,0,0,1,.6-.5l.6-.3c.2-.1.3,0,.2.2a1.79,1.79,0,0,1-.5.7c-.1.1-.2.3-.3.4s-.1.2.1.3a1.68,1.68,0,0,0,.5,1.9c-.1-.3.1-.5.2-.7s.1-.2.2-.3.4-.2.4-.4.1-.2.1-.3c.1-.4.1-.8.2-1.2a1.61,1.61,0,0,1,.4-.7.6.6,0,0,1,.4-.1.37.37,0,0,1,.1.3v1.6c.1-.1.1-.2.2-.2s.3-.1.5-.2.2-.3.3-.4.2-.3.4-.5c.1.1.2.3.4.4.1-.2,0-.9.2-1s.1.2.3.4c0-.1.1-.1.1-.2s.2-.5.4-.6c0,0,.3.5.4.5s.3-.7.4-.8.9.8,1.2.8c-.1-.1,0-.3-.1-.4s.3-.2.3-.2.2.1.3.2v-.3a.46.46,0,0,1,.7-.3,1.27,1.27,0,0,0,.6.1,1.47,1.47,0,0,1-.2-.4.37.37,0,0,1,.3.1.6.6,0,0,1,.4.1.62.62,0,0,0,.7-.1c.1-.1.2-.1.3-.2s.2,0,.2.1v.3c.1-.2.3-.2.5-.2s.1,0,.1-.1l.4-.4c.1-.1.3-.1.3,0,.2.3.4.5.6.8a4,4,0,0,0,1.5,1c.4.1.7.1,1.1.2a.76.76,0,0,1,.5.2,2.45,2.45,0,0,1,.4,1.2,4.88,4.88,0,0,1-1.7-.1,2.19,2.19,0,0,1-.5-.3.76.76,0,0,0-.4-.2,1.5,1.5,0,0,0-1.3.1,8.79,8.79,0,0,1-1,.6,3,3,0,0,1-.7.5,1.42,1.42,0,0,1-.6.2c-.3-.1-.5-.1-.8-.2a.68.68,0,0,1-.4-.6,1.41,1.41,0,0,1,.1-.9c0-.1.1-.2.1-.3-.2.2-.4.3-.6.5a1.13,1.13,0,0,0-.2,1.6c0,.1.1.1.1.2a3,3,0,0,1-2.2-1.2A2.55,2.55,0,0,0,28.6,49a1.78,1.78,0,0,1-.7.8,2,2,0,0,1-1.1.2,1.52,1.52,0,0,0,1.3.3h.1a.19.19,0,0,0,.3,0c.2-.1.3-.2.5-.3s.1-.1.3-.1l-.2.4h.2a.44.44,0,0,1,.5.1c.1,0,.2.1.3.1h.3a.1.1,0,0,1,.1.1l.3.9a3.55,3.55,0,0,0,.4.9,1.27,1.27,0,0,1,.1.6h-.2c-1.2,0-2.4-.1-3.7-.1a1.22,1.22,0,0,1-.9-.4c-.2-.1-.3-.3-.5-.4a.55.55,0,0,1-.3-.5,6.37,6.37,0,0,0-.2-.7c-.1-.3-.2-.3-.5-.1a1.6,1.6,0,0,0-2.1.2,1.43,1.43,0,0,1,1.2.6h-.4c-.2,0-.2,0-.2.2a1.11,1.11,0,0,0-1.1,1.1l.2-.1c.2-.1.4-.2.6.1h.1l.1.1a.35.35,0,0,1-.2.1,1.69,1.69,0,0,0-1,.7,1.08,1.08,0,0,0-.2.8c.1-.1.2-.2.3-.2a.19.19,0,0,1,.3,0h.5c.1,0,.2,0,.3.2s.1.1.2.1a2.15,2.15,0,0,0,.8,0,2,2,0,0,1,1.3-.2c.1,0,.2.1.1.2s-.2.1-.3.2a.9.9,0,0,1-.5.1.9.9,0,0,0-.6.6h.3a1.65,1.65,0,0,0,.1,2v-.2c0-.1.1-.1.1-.2s.2-.1.2-.2a1,1,0,0,1,.5-.4,1,1,0,0,0,.7-.8c.1-.2.1-.4.2-.6s.3-.2.5-.2.2.1.3.3a3,3,0,0,0,.4.8l.3.3a2.65,2.65,0,0,1,.6-.5c.2-.1.3-.1.4.1s.4.5.6.7.3.2.4.3a2.18,2.18,0,0,1,.4-.5c.2-.2.4-.2.5,0a4.17,4.17,0,0,0,.6.8c.1.1.2.1.2.2,0-.1.1-.1.1-.2s.2-.3.3-.4a1.38,1.38,0,0,1,.3-.4c.1-.1.2-.1.3.1s.2.3.3.5c.1,0,.1-.1.2-.1a.55.55,0,0,0,.5-.3.67.67,0,0,1,.8-.3h.7a.27.27,0,0,0,.3-.3c0-.1,0-.1.1-.2a2.19,2.19,0,0,1,.3-.5h-.2a4.1,4.1,0,0,1-1.1.1,1.27,1.27,0,0,1-1-1.1,5,5,0,0,1,.2-1.2,2.55,2.55,0,0,1,2.7-1.6h.1v-.8c0-.1,0-.1-.1-.1s-.2-.2.1-1.2c.4-1.5,2.2-1.1,2.2-1.1a.1.1,0,0,1,0,.2,1.39,1.39,0,0,0-.9,0,1.27,1.27,0,0,0-1.1,1c-.3.9-.2.9-.1,1a.37.37,0,0,1,.1.3v.3a1.13,1.13,0,0,0,.1.8c.2.5.5,1,.7,1.5s.3.8.4,1.2c0,.1,0,.2-.1.2a2.51,2.51,0,0,0-.7.4,1.9,1.9,0,0,0-.7,2.2.1.1,0,0,0,.1.1c0-.2.1-.3.1-.4a.76.76,0,0,1,.2-.4c.1,0,.1.1.2.1a.22.22,0,0,1,.2.2c.1.3.2.5.3.8l.3.3v-.4c0-.3.3-.7.7-.4a.37.37,0,0,0,.3.1.66.66,0,0,0,.7-.2c-.1,0-.1-.1-.2-.1a1,1,0,0,1-.6-.5,1.27,1.27,0,0,1-.1-.6c0-.2.2-.3.4-.2h.1a.76.76,0,0,1,.4.2,1.16,1.16,0,0,0,1,.2,2.18,2.18,0,0,0,.8-.5l.4-.4c.1-.1.1-.1.2,0l.1.1.3.9a1.44,1.44,0,0,1-.5,1.5.85.85,0,0,0-.3.5c-.1.2-.1.3-.2.5a.76.76,0,0,1-.9.5,2.35,2.35,0,0,1-.8-.2c-.4-.1-.5,0-.4.4a1.46,1.46,0,0,0-.9.6,1.43,1.43,0,0,0-.3,1.1l.3-.3c.1-.1.1-.1.3,0h.2a.45.45,0,0,1,.5,0,2.19,2.19,0,0,1-.3.5c-.1.2-.1.2,0,.3a1.08,1.08,0,0,0,.1,1.5c0-.1.1-.2.1-.3s.3-.2.4-.3.3-.1.3.2a1.4,1.4,0,0,0,.3.9l.4.4v-.1a1,1,0,0,1,.5-1,1.27,1.27,0,0,0,.4-.7,2.13,2.13,0,0,1,.7-1.5.37.37,0,0,1,.3-.1c.1,0,.1,0,.2.1V61a.6.6,0,0,1-.1.4.79.79,0,0,0,.5.8c.3.1.4.2.4.5v.6c.1-.1.3-.2.4-.3.3-.1.3-.4.4-.7s.1-.6.1-1a.52.52,0,0,0-.3-.7c-.1,0-.2-.1-.3-.2s-.2-.2-.2-.3c0-.4.1-.7.5-.8a.75.75,0,0,0,.5-.1c.1,0,.2-.1.3-.2s.1-.2.2-.3l.2-.1-.9-.5V58c.1-.1.1-.1.2-.1s.4-.1.6-.2.4-.1.4-.4a.1.1,0,0,1,.1-.1l.3-.3-.6-.3v-.1c.1-.1.3-.1.4-.2s.2-.1.3-.2a1.38,1.38,0,0,1,.3-.4.1.1,0,0,0,.1-.1,5.9,5.9,0,0,0-.8-.4c-.1-.1-.2-.1,0-.3s.3-.2.4-.3.1-.1.1-.2.1-.2.1-.3.2-.2.2-.3a2.61,2.61,0,0,1-.8-.3l.4-.2c.1,0,.2-.1.4-.1s.2-.3.3-.4.1-.1.1-.2h-.3a2,2,0,0,1-.8-.4.76.76,0,0,1-.2-.5v-.3c-.1-.1,0-.2.1-.3s.1-.1.2-.2h-.2a.86.86,0,0,1-.8-.8v-.8a.1.1,0,0,1-.1.1,3.33,3.33,0,0,1-1.4,1.2,1.79,1.79,0,0,1-1.6.1c-.4-.2-.8-.4-.8-.9V48.6a.37.37,0,0,1,.1-.3,8.24,8.24,0,0,0-.6-4.4c-.4-.8-.8-1.5-1.2-2.3-.3-.6-.8-1.2-1.1-1.8a1,1,0,0,1,0-.9V39a1.38,1.38,0,0,0,1.8.3,1.2,1.2,0,0,1-.7-.7,2.77,2.77,0,0,1,.1-.9c.7.1,1.8,0,2.1-.9,0,0-1.3.5-1.8-1.5v-.2c.7,0,1.6-.1,1.8-.9a1.17,1.17,0,0,1-1.5-.7c.7-.2,1.6-.7,1.5-1.6a7,7,0,0,0,2.5,3.9A17.41,17.41,0,0,1,45.5,37a8.1,8.1,0,0,1,2,3.9v.3a.1.1,0,0,1-.1-.1,3.17,3.17,0,0,0-2.1-1.3.85.85,0,0,1-.7-.8v-.3a1.13,1.13,0,0,1,.1-.8c0-.1.1-.1.1-.2a1.17,1.17,0,0,0-1,1.2,2.92,2.92,0,0,0,.2.9.76.76,0,0,0,.2.4c-.4.2-.8.4-.9.9a2.41,2.41,0,0,1-1.6-.9v.1a1.3,1.3,0,0,0,.5,1.3c.1.1.2.1.3.2s.1.1.1.2a2.19,2.19,0,0,1-.3.5,2,2,0,0,0,.4,2.3c.1.1.2.2.3.2v-.2a3.3,3.3,0,0,1,0-1.4,1.38,1.38,0,0,1,.3-.4.3.3,0,0,1,.4,0c.2.2.4.3.6.5s.6.2.7,0a1.38,1.38,0,0,1,.3-.4,2.65,2.65,0,0,1-.5-.6.45.45,0,0,1,0-.5c.1-.1.2-.3.4-.3a1.71,1.71,0,0,1,1.9.3,1.91,1.91,0,0,1,.7,2,3.62,3.62,0,0,1-1.5,2.3,2.91,2.91,0,0,1-3.9-.1,6.89,6.89,0,0,1-1.1-1.3,10.8,10.8,0,0,1,.2,3.1.45.45,0,0,1,.5,0,5.27,5.27,0,0,0,1.2.3,6.1,6.1,0,0,0,3-.1,3.44,3.44,0,0,0,2.1-1.6,7.22,7.22,0,0,0,.9-2,7.75,7.75,0,0,0,.2-3.4,6.76,6.76,0,0,0-1.3-3.3c-.9-1.2-2-2.2-3-3.3-.6-.6-1.1-1.2-1.6-1.8a3.29,3.29,0,0,1-.6-1.9,6.6,6.6,0,0,1,.1-1.4,5.78,5.78,0,0,1,.6-1.7,2.84,2.84,0,0,1,.9-1,2.07,2.07,0,0,1,1-.6.48.48,0,0,1,.6.2.62.62,0,0,1,.1.7.37.37,0,0,0-.1.3,2.89,2.89,0,0,0-.3,1.8,2.2,2.2,0,0,0,.1.8c.1-.1.3-.2.3-.3.7-.5.1.4.1.5s-.2.5-.3.7a1.57,1.57,0,0,0,.4,1.7c.1.1.3.2.4.3a.71.71,0,0,1,.3-.6,1.19,1.19,0,0,0,1,.8,1.91,1.91,0,0,1,.2-1.8c.1-.1.2-.3.3-.4s.3-.2.5,0,.5.4.7.6a.64.64,0,0,0,.6,0c.1-.1.2-.1.3-.2s.1-.1.2-.1h-.1a1.62,1.62,0,0,1-1-1.6c0-.2.1-.3.2-.5.3-.6.9-1,1.1-1.6.1-.2.1-.3.2-.5-.2.1-.3.2-.5.3a1.48,1.48,0,0,1-2.2-.3ZM32.9,31.4c0-.1,0-.2.1-.2a1.75,1.75,0,0,1,1.2-.4h.4a.1.1,0,0,1,.1.1v.6l-1.4-.1h-.2c-.1.1-.1.1-.2,0ZM34.6,33a1.59,1.59,0,0,1-1.3.3.1.1,0,0,1-.1-.1c-.1-.2-.1-.4-.2-.6s0-.1.1-.2h1.7a.37.37,0,0,1,.3.1c-.2.2-.3.4-.5.5Zm-.3-4s.3-.5,1.4-.5C35.8,28.5,35.6,29.6,34.3,29Z" fill="#fff"/><path d="M20.3,32.4a3.54,3.54,0,0,1-2.6,3.5A3.76,3.76,0,0,1,20.3,32.4Zm-5.1,0a3.63,3.63,0,0,1,2.6,3.5A3.46,3.46,0,0,1,15.2,32.4Zm-1.6,4.9a3.75,3.75,0,0,1,4.2-1.4A3.7,3.7,0,0,1,13.6,37.3Zm4.2,3a3.6,3.6,0,0,1,0-4.4A3.6,3.6,0,0,1,17.8,40.3Zm4.1-3a3.7,3.7,0,0,1-4.2-1.4A3.75,3.75,0,0,1,21.9,37.3Z" fill="#00803d"/><path d="M15.7,38.8c-1.4-1-.9-1.7-.5-1.9a5.64,5.64,0,0,1,1.2-.4c1.4-.5,1.6-.3,1.4,1a4.87,4.87,0,0,1-.1,1.2c-.1.4-.7,1-2,.1Z" fill="#fff"/><path d="M15.1,37a.62.62,0,0,0,0,.9,5.58,5.58,0,0,0,.8.5,2.1,2.1,0,0,0,.8.6c.5.2.7,0,.8-.2-.1.2-.3.3-.8.1-.2-.1-.3-.5-.7-.7s-.7-.2-.9-.4a.75.75,0,0,1,0-.8Z" fill="#12100b"/><path d="M19.7,38.8c-1.4,1-1.9.3-2-.1a4.87,4.87,0,0,0-.1-1.2c-.1-1.5.2-1.6,1.4-1,.4.1.8.3,1.2.4s.9.9-.5,1.9Z" fill="#fff"/><path d="M17.9,38.8c.1.2.3.4.8.2a8.11,8.11,0,0,1,.8-.6c.3-.2.7-.3.8-.5.3-.4.2-.7,0-.8.1.1.2.4-.1.8-.2.2-.5.2-.9.4a4.51,4.51,0,0,1-.7.7.66.66,0,0,1-.7-.2Z" fill="#12100b"/><path d="M21.1,34.9c.5,1.6-.3,1.9-.7,1.8l-1.2-.3c-1.4-.4-1.4-.7-.5-1.7.3-.3.5-.7.8-1s1.1-.3,1.6,1.2Z" fill="#fff"/><path d="M20.5,36.7A.68.68,0,0,0,21,36c0-.3-.2-.5-.3-.9s-.1-.7-.3-.9c-.3-.4-.6-.4-.8-.3.2-.1.4-.1.7.3.1.2,0,.6.1,1s.4.6.5.9A.45.45,0,0,1,20.5,36.7Z" fill="#12100b"/><path d="M17.8,32.5c1.7,0,1.7.9,1.5,1.2s-.5.7-.7,1c-.8,1.2-1.1,1.2-1.7,0-.2-.3-.5-.7-.7-1s0-1.2,1.6-1.2Z" fill="#fff"/><path d="M19.3,33.6a.61.61,0,0,0-.5-.7c-.2-.1-.6.1-1,0a1.7,1.7,0,0,0-1,0c-.5.1-.5.4-.5.7,0-.2,0-.5.5-.6.2-.1.5.2,1,.2s.7-.2,1-.2C19.3,33.2,19.3,33.4,19.3,33.6Z" fill="#12100b"/><path d="M14.4,34.9c.5-1.6,1.4-1.4,1.6-1.1s.5.6.8,1c.9,1.1.8,1.4-.5,1.7l-1.2.3c-.4,0-1.2-.4-.7-1.9Z" fill="#fff"/><path d="M16,33.8c-.2-.1-.5-.2-.8.3a4.71,4.71,0,0,1-.3.9,9.2,9.2,0,0,0-.3.9c0,.5.2.7.5.7-.2,0-.4-.2-.4-.7,0-.3.3-.5.5-.9s0-.8.1-1A.53.53,0,0,1,16,33.8Z" fill="#12100b"/><path d="M17.7,34.1v.8c.1.9,0,1-.9.7-.3-.1-.5-.2-.8-.3s-.5-.6.4-1.2S17.7,33.8,17.7,34.1Z" fill="#fff"/><path d="M16.1,34.7c.1-.1.4-.1.6-.3s.3-.4.4-.5a.4.4,0,0,1,.5.1.37.37,0,0,0-.5-.2,1.76,1.76,0,0,0-.5.4c-.2.2-.4.3-.5.5s-.2.3-.1.5C15.9,35.1,15.9,34.9,16.1,34.7Z" fill="#12100b"/><path d="M19.4,35.3a6.89,6.89,0,0,1-.8.3c-.8.4-1,.3-.9-.7v-.8c0-.3.4-.7,1.3,0S19.7,35.2,19.4,35.3Z" fill="#fff"/><path d="M18.4,33.9c.2.1.2.3.5.5s.5.1.6.3a.52.52,0,0,1,.1.5c.1-.1.2-.4,0-.5s-.3-.2-.5-.4a1.72,1.72,0,0,0-.7-.4c-.1-.2-.4-.1-.5.1,0-.1.1-.2.5-.1Z" fill="#12100b"/><path d="M18.9,37.3c-.2-.2-.3-.4-.5-.6-.6-.7-.6-.9.4-1.1a2.35,2.35,0,0,1,.8-.2c.3-.1.8.2.4,1.2s-.9.9-1.1.7Z" fill="#fff"/><path d="M19.8,35.8c0,.2-.2.3-.3.6s0,.5-.1.6c-.2.3-.4.3-.5.2a.37.37,0,0,0,.5-.2c.1-.1.1-.4.2-.6s.3-.4.2-.6c.1-.2,0-.4-.2-.4h-.1c.2,0,.4.1.3.4Z" fill="#12100b"/><path d="M16.8,37.3a4.35,4.35,0,0,0,.4-.7c.4-.8.6-.8,1.1,0a4.35,4.35,0,0,1,.4.7c.1.2.1.8-1,.8S16.6,37.6,16.8,37.3Z" fill="#fff"/><path d="M18.4,37.8c-.2,0-.4-.1-.6-.1s-.5.2-.6.1c-.3-.1-.4-.3-.4-.4,0,.2.1.4.3.4h.6c.2,0,.6.1.7,0,.2.1.4-.1.4-.3v-.1C18.8,37.5,18.7,37.7,18.4,37.8Z" fill="#12100b"/><path d="M16,35.4c.3.1.5.1.8.2.9.2,1,.4.4,1.1-.2.2-.3.4-.5.6s-.7.3-1.1-.7.2-1.3.4-1.2Z" fill="#fff"/><path d="M16.1,37.1c-.1-.1,0-.4-.1-.6s-.3-.4-.3-.6a.59.59,0,0,1,.2-.5c-.2,0-.3.2-.3.4s.2.3.2.6c.2.4.2.6.3.7s.2.3.4.2c0,.1-.2.1-.4-.2Z" fill="#12100b"/><path d="M18.2,35.3v.2c0,.1.1,0,.2,0v-.2h-.2ZM17,36v.2h.2V36h-.1c-.1-.1-.1-.1-.1,0Zm.1.2v.2h.2v-.2h-.2Zm.1.2v.2h.2v-.2h-.1c0-.1,0,0-.1,0Zm.3.1v.2c0,.1.1,0,.2,0v-.2h-.2Zm.2.1v.2h.2v-.2h-.1c0-.1-.1-.1-.1,0Zm.3-.1v.2c0,.1.1,0,.2,0v-.2H18Zm.2-.1v.2h.2v-.2h-.1c-.1-.1-.1,0-.1,0Zm.1-.2v.2h.2c.1,0,0-.1,0-.2h-.2Zm.1-.2v.2c0,.1.1,0,.2,0V36h-.1c0-.1-.1-.1-.1,0Zm0-.3v.2h.2v-.2h-.2Zm-.1-.2v.2h.2v-.2h-.1c0-.1,0-.1-.1,0Zm-.3-.3v.2h.2v-.2h-.1c-.1-.1-.1-.1-.1,0Zm-1,.5v.2h.2v-.2H17Zm0-.2v.2h.2v-.2h-.1c0-.1,0-.1-.1,0Zm.2-.2v.2c0,.1.1,0,.2,0v-.2h-.1c0-.1-.1,0-.1,0Zm.2-.1v.2h.2v-.2h-.1c0-.1,0-.1-.1,0Zm.3-.1v.2h.2v-.2h-.2Zm-.4.5a.57.57,0,1,0,.8-.1C17.9,35.2,17.5,35.3,17.3,35.6Zm.2.1a.29.29,0,1,0,.4-.1A.6.6,0,0,0,17.5,35.7Z" fill="#fdc300"/><path d="M18.7,15.8v1c-.4-.1-.9-.1-1.3-.2-.6,0-.8.2-.8.6v.2c0,.3.1.4.6.6l.8.3a1.44,1.44,0,0,1,1.1,1.6v.2c0,1.1-.6,1.7-2,1.7a6.75,6.75,0,0,1-1.4-.2v-1a5.85,5.85,0,0,0,1.3.2c.7,0,1-.2,1-.6V20c0-.3-.1-.5-.5-.6l-.9-.3a1.44,1.44,0,0,1-1.2-1.6v-.1c0-1.1.5-1.6,1.8-1.6a3.79,3.79,0,0,1,1.5,0Zm1.1,5.8V15.7h1.1v5.9Zm4.4-4.9v4.9H23.1V16.7H21.5v-1h4.3v1Zm6.6,4.9-1-4.7-1,4.7H27.5l-1.3-5.9h1.1l.8,4.8,1-4.8h1.3l1,4.7.8-4.7h1.1L32,21.6Zm4.3-4.9v1.4h2v1h-2v1.5h2.2v1H34V15.7h3.3v1Zm6.3,3.9v1H38.1V15.7h1.1v4.9Zm4,0v1H42.1V15.7h1.1v4.9Zm5.1-4.8v1a4.87,4.87,0,0,0-1.2-.1c-.8,0-1,.2-1,1v2.2c0,.7.3,1,1,1a5,5,0,0,0,1.2-.2v1c-.4.1-.9.1-1.3.2-1.5,0-2-.6-2-1.9V17.7c0-1.3.5-1.9,2-1.9A2.85,2.85,0,0,1,50.5,15.8Zm4.1,0v1a4.87,4.87,0,0,0-1.2-.1c-.8,0-1,.2-1,1v2.2c0,.7.3,1,1,1a5,5,0,0,0,1.2-.2v1c-.4.1-.9.1-1.3.2-1.5,0-2-.6-2-1.9V17.7c0-1.3.5-1.9,2-1.9A2.85,2.85,0,0,1,54.6,15.8Z" fill="#fff"/></svg>