<svg xmlns="http://www.w3.org/2000/svg" viewBox="0 0 199.92 151.91"><path d="M100,50.72a73.41,73.41,0,0,1,69.46,96.93c-.2.57-.4,1.15-.61,1.72H31.15c-.21-.57-.41-1.15-.61-1.72A73.41,73.41,0,0,1,100,50.72m0-26.63A99.95,99.95,0,0,0,14.58,176H185.42A100,100,0,0,0,100,24.09Z" transform="translate(-0.04 -24.09)"/><path d="M24.14,123.85a75.86,75.86,0,1,1,148.17,23h-7.19a69.06,69.06,0,1,0-130.24,0H27.69A75.5,75.5,0,0,1,24.14,123.85Z" transform="translate(-0.04 -24.09)"/><path d="M100,111.11c.38,0,.76,0,1.13,0l-8.95,13,0,0v0a10.44,10.44,0,1,0,17.45,11.46,10.09,10.09,0,0,0,1-1.88l0,0v0L116.1,119a20.38,20.38,0,1,1-16.1-7.89Z" transform="translate(-0.04 -24.09)"/><path d="M108.21,132.86a8.5,8.5,0,0,1-.75,1.43,7.89,7.89,0,1,1-13.18-8.66L104,111.5l26.68-38.83-16.49,44.19Z" transform="translate(-0.04 -24.09)"/></svg>