<?xml version="1.0" encoding="utf-8"?>
<!-- Generator: Adobe Illustrator 25.4.1, SVG Export Plug-In . SVG Version: 6.00 Build 0)  -->
<svg version="1.1" id="Layer_1" xmlns="http://www.w3.org/2000/svg" xmlns:xlink="http://www.w3.org/1999/xlink" x="0px" y="0px"
	 viewBox="0 0 410 150" style="enable-background:new 0 0 410 150;" xml:space="preserve">
<style type="text/css">
	.st0{fill:#FBDF08;}
	.st1{fill:#109A49;}
	.st2{enable-background:new    ;}
</style>
<rect class="st0" width="410" height="150"/>
<path class="st1" d="M259,82.5h-3.9L252,71l-0.1,13.6h-3.4l0.2-19.6h4.6l3.8,13.9l3.8-13.9h4.6l0.2,19.6h-3.4L262.1,71L259,82.5z"/>
<path class="st1" d="M272.5,68.3V73h6.7v3.3h-6.7v5h7.3v3.3h-10.9V65h10.9v3.3H272.5z"/>
<path class="st1" d="M293.3,82.5h-3.9L286.3,71l-0.1,13.6h-3.4L283,65h4.6l3.8,13.9l3.8-13.9h4.6l0.2,19.6h-3.4L296.4,71L293.3,82.5
	z"/>
<path class="st1" d="M315.3,69.6v0.5c0,1.9-0.9,3.5-2.9,4.3c2.3,0.4,3.7,2.1,3.7,4.5v0.6c0,3.2-2.1,5.5-7.3,5.5c-1.7,0-3,0-5.7-0.1
	v-20c1.5-0.1,3.8-0.1,5.5-0.1C313.1,64.7,315.3,66.8,315.3,69.6z M306.7,67.9v5.3h2.2c1.9,0,2.9-1,2.9-2.6v-0.5
	c0-1.5-0.9-2.3-3.3-2.3C307.9,67.8,307.4,67.8,306.7,67.9z M306.7,81.7c1.1,0.1,1.4,0.1,2.2,0.1c2.6,0,3.6-1,3.6-2.7v-0.5
	c0-1.6-1-2.5-3.5-2.5h-2.3L306.7,81.7L306.7,81.7z"/>
<path class="st1" d="M322.1,68.3V73h6.7v3.3h-6.7v5h7.3v3.3h-10.9V65h10.9v3.3H322.1z"/>
<g class="st2">
	<path class="st1" d="M345,70.2v0.7c0,2.1-1.1,4-3.3,4.9l4.8,8.8h-3.9l-4.2-7.9c-0.5,0.1-1.5,0-2.3,0v7.9h-3.6V64.9
		c1.7-0.1,4.1-0.2,5.5-0.2C342.9,64.7,345,66.8,345,70.2z M336,67.9v5.7c0.9,0.1,1.3,0.1,1.9,0.1c2.5,0,3.5-1.1,3.5-2.8v-0.5
		c0-1.7-1-2.6-3.5-2.6C337.4,67.8,336.6,67.9,336,67.9z"/>
</g>
<g class="st2">
	<path class="st1" d="M358.1,65.2l-0.1,3.3c-1.5-0.3-3.3-0.5-4.4-0.5c-1.9,0-2.6,0.7-2.6,2.1v0.6c0,1.1,0.3,1.5,1.9,2l2.6,0.9
		c2.8,0.9,3.8,2.3,3.8,5.4v0.6c0,3.6-1.9,5.6-6.8,5.6c-1.1,0-2.9-0.3-4.6-0.6v-3.3c1.6,0.4,3.4,0.7,4.5,0.7c2.5,0,3.3-0.8,3.3-2.2
		V79c0-1-0.4-1.6-1.6-2l-2.9-1c-2.9-1-3.9-2.2-3.9-5.3v-0.5c0-3.6,1.8-5.5,6.1-5.5C354.7,64.7,356.5,64.9,358.1,65.2z"/>
</g>
<g class="st2">
	<path class="st1" d="M227.3,69.9v11.2h-14.2v15.5h-12V81.1h-14.3V69.9h14.3V54.4h12v15.5H227.3z"/>
</g>
<g>
	<path class="st1" d="M71.9,59.3v2.3c0,6.5-1.9,12.2-9.3,20.5L49.7,96.9h22.4V108H33.7v-9.2l21.1-26.1c3.5-4.4,4.3-6.7,4.3-10.8
		v-1.6c0-5.5-3.1-8.1-9.8-8.1c-4,0-9.7,1.2-13.8,2.4V43.4c5.5-1.3,11.1-2.3,14.8-2.3C64.7,41.1,71.9,47.3,71.9,59.3z"/>
	<path class="st1" d="M122.5,63.6v23.1c0,15.2-7.4,22.6-20.8,22.6s-20.9-7.4-20.9-22.6V63.6c0-15.3,7.5-22.5,20.9-22.5
		C114.9,41.1,122.5,48.3,122.5,63.6z M93.6,62.5v25.3c0,7.3,2.8,10.4,8.1,10.4c5.1,0,8.1-3.1,8.1-10.4V62.5c0-7.3-2.9-10.3-8.1-10.3
		C96.4,52.2,93.6,55.2,93.6,62.5z"/>
	<path class="st1" d="M174.4,63.6v23.1c0,15.2-7.4,22.6-20.8,22.6s-20.8-7.4-20.8-22.6V63.6c0-15.3,7.5-22.5,20.8-22.5
		C166.8,41.1,174.4,48.3,174.4,63.6z M145.5,62.5v25.3c0,7.3,2.8,10.4,8.1,10.4c5.1,0,8.1-3.1,8.1-10.4V62.5
		c0-7.3-2.9-10.3-8.1-10.3C148.3,52.2,145.5,55.2,145.5,62.5z"/>
</g>
</svg>
