<?xml version="1.0" encoding="utf-8"?>
<!-- Generator: Adobe Illustrator 25.1.0, SVG Export Plug-In . SVG Version: 6.00 Build 0)  -->
<svg version="1.1" id="Layer_1" xmlns="http://www.w3.org/2000/svg" xmlns:xlink="http://www.w3.org/1999/xlink" x="0px" y="0px"
	 viewBox="0 0 410 150" style="enable-background:new 0 0 410 150;" xml:space="preserve">
<style type="text/css">
	.st0{fill:#109A49;}
	.st1{enable-background:new    ;}
	.st2{fill:#FBDF08;}
</style>
<rect class="st0" width="410" height="150"/>
<g class="st1">
	<path class="st2" d="M191.4,56.5v7.1c0,4.1-2,6.6-6.8,6.6c-4.7,0-6.7-2.5-6.7-6.6v-7.1c0-4.2,2-6.6,6.7-6.6
		C189.4,49.9,191.4,52.3,191.4,56.5z M181.5,56.2v7.6c0,2.1,1.1,3.1,3.2,3.1c2.1,0,3.2-1.1,3.2-3.1v-7.6c0-2-1.1-3.1-3.2-3.1
		C182.6,53.1,181.5,54.2,181.5,56.2z"/>
</g>
<g class="st1">
	<path class="st2" d="M198.2,69.8l-5.6-19.6h3.8l4,16.4l4.1-16.4h3.8l-5.7,19.6H198.2z"/>
	<path class="st2" d="M213.7,53.5v4.7h6.7v3.3h-6.7v5h7.3v3.3h-10.9V50.3h10.9v3.3H213.7z"/>
</g>
<g class="st1">
	<path class="st2" d="M236.7,55.4v0.7c0,2.1-1.1,4-3.3,4.9l4.8,8.8h-3.9l-4.2-7.9c-0.5,0.1-1.5,0-2.3,0v7.9h-3.6V50.1
		c1.7-0.1,4.1-0.2,5.5-0.2C234.6,49.9,236.7,52.1,236.7,55.4z M227.7,53.1v5.7c0.9,0.1,1.3,0.1,1.9,0.1c2.5,0,3.5-1.1,3.5-2.8v-0.5
		c0-1.7-1-2.6-3.5-2.6C229.1,53,228.3,53.1,227.7,53.1z"/>
</g>
<g class="st1">
	<path class="st2" d="M249.7,50.4l-0.1,3.3c-1.5-0.3-3.3-0.5-4.4-0.5c-1.9,0-2.6,0.7-2.6,2.1v0.6c0,1.1,0.3,1.5,1.9,2l2.6,0.9
		c2.8,0.9,3.8,2.3,3.8,5.4v0.6c0,3.6-1.9,5.6-6.8,5.6c-1.1,0-2.9-0.3-4.6-0.6l0-3.3c1.6,0.4,3.4,0.7,4.5,0.7c2.5,0,3.3-0.8,3.3-2.2
		V64c0-1-0.4-1.6-1.6-2l-2.9-1c-2.9-1-3.9-2.2-3.9-5.3v-0.3c0-3.6,1.8-5.5,6.1-5.5C246.4,49.9,248.1,50.1,249.7,50.4z"/>
</g>
<g class="st1">
	<path class="st2" d="M257.1,53.5v4.7h6.7v3.3h-6.7v5h7.3v3.3h-10.9V50.3h10.9v3.3H257.1z"/>
</g>
<g class="st1">
	<path class="st2" d="M277.9,69.8l-1-4.1h-6.2l-1,4.1h-3.7l5.8-19.6h4.2l5.8,19.6H277.9z M276.1,62.7l-2.4-9.4l-2.4,9.4H276.1z"/>
</g>
<g class="st1">
	<path class="st2" d="M292.8,50.4l-0.1,3.3c-1.5-0.3-3.3-0.5-4.4-0.5c-1.9,0-2.6,0.7-2.6,2.1v0.6c0,1.1,0.3,1.5,1.9,2l2.6,0.9
		c2.8,0.9,3.8,2.3,3.8,5.4v0.6c0,3.6-1.9,5.6-6.8,5.6c-1.1,0-2.9-0.3-4.6-0.6l0-3.3c1.6,0.4,3.4,0.7,4.5,0.7c2.5,0,3.3-0.8,3.3-2.2
		V64c0-1-0.4-1.6-1.6-2l-2.9-1c-2.9-1-3.9-2.2-3.9-5.3v-0.3c0-3.6,1.8-5.5,6.1-5.5C289.4,49.9,291.2,50.1,292.8,50.4z"/>
</g>
<g class="st1">
	<path class="st2" d="M211.7,84.5v16.3h-3.6V84.5h-5.4v-3.3h14.3v3.3H211.7z"/>
	<path class="st2" d="M231.9,86.4v0.7c0,2.1-1.1,4-3.3,4.9l4.8,8.8h-3.9l-4.2-7.9c-0.5,0.1-1.5,0-2.3,0v7.9h-3.6V81.1
		c1.7-0.1,4.1-0.2,5.5-0.2C229.8,80.9,231.9,83.1,231.9,86.4z M222.9,84.1v5.7c0.9,0.1,1.3,0.1,1.9,0.1c2.5,0,3.5-1.1,3.5-2.8v-0.5
		c0-1.7-1-2.6-3.5-2.6C224.4,84,223.5,84.1,222.9,84.1z"/>
	<path class="st2" d="M235.2,100.8V81.3h3.6v19.6H235.2z"/>
</g>
<g class="st1">
	<path class="st2" d="M254.7,86.6v0.7c0,3.8-2.2,6.1-6.8,6.1c-0.6,0-1.3-0.1-2.2-0.2v7.7h-3.6V81.1c1.5-0.1,3.4-0.1,5.4-0.2
		C252.5,80.9,254.7,83.1,254.7,86.6z M245.7,84.1V90c0.9,0.1,1.5,0.2,2,0.2c2.3,0,3.5-1,3.5-3v-0.4c0-1.7-1-2.7-3.6-2.7
		C246.6,84,246.2,84,245.7,84.1z"/>
</g>
<g class="st1">
	<path class="st2" d="M267.1,81.4l-0.1,3.3c-1.5-0.3-3.3-0.5-4.4-0.5c-1.9,0-2.6,0.7-2.6,2.1v0.6c0,1.1,0.3,1.5,1.9,2l2.6,0.9
		c2.8,0.9,3.8,2.3,3.8,5.4v0.6c0,3.6-1.9,5.6-6.8,5.6c-1.1,0-2.9-0.3-4.6-0.6l0-3.3c1.6,0.4,3.4,0.7,4.5,0.7c2.5,0,3.3-0.8,3.3-2.2
		V95c0-1-0.4-1.6-1.6-2l-2.9-1c-2.9-1-3.9-2.2-3.9-5.3v-0.3c0-3.6,1.8-5.5,6.1-5.5C263.8,80.9,265.5,81.1,267.1,81.4z"/>
</g>
<g class="st1">
	<path class="st2" d="M155.3,56v2.3c0,6.6-1.9,12.3-9.3,20.7l-13,14.8h22.5V105h-38.7v-9.2L138,69.5c3.5-4.4,4.3-6.7,4.3-10.9V57
		c0-5.5-3.1-8.1-9.9-8.1c-4.1,0-9.8,1.2-13.9,2.4V39.9c5.5-1.3,11.2-2.3,14.9-2.3C148,37.6,155.3,43.9,155.3,56z"/>
</g>
</svg>
