<?xml version="1.0" encoding="utf-8"?>
<!-- Generator: Adobe Illustrator 25.4.1, SVG Export Plug-In . SVG Version: 6.00 Build 0)  -->
<svg version="1.1" id="Layer_1" xmlns="http://www.w3.org/2000/svg" xmlns:xlink="http://www.w3.org/1999/xlink" x="0px" y="0px"
	 viewBox="0 0 410 150" style="enable-background:new 0 0 410 150;" xml:space="preserve">
<style type="text/css">
	.st0{fill:#FBDF08;}
	.st1{enable-background:new    ;}
	.st2{fill:#109A49;}
</style>
<rect x="0.1" class="st0" width="410" height="150"/>
<g class="st1">
	<path class="st2" d="M164.1,54.8v0.5c0,1.9-0.9,3.5-2.9,4.3c2.3,0.4,3.7,2.1,3.7,4.5v0.6c0,3.2-2.1,5.5-7.3,5.5c-1.7,0-3,0-5.7-0.1
		v-20c1.5-0.1,3.8-0.1,5.5-0.1C161.9,49.9,164.1,52,164.1,54.8z M155.5,53.1v5.4h2.2c1.9,0,2.9-1,2.9-2.6v-0.5
		c0-1.5-0.9-2.3-3.3-2.3C156.6,53,156.1,53,155.5,53.1z M155.5,66.9c1.1,0.1,1.4,0.1,2.2,0.1c2.6,0,3.6-1,3.6-2.7v-0.5
		c0-1.6-1-2.5-3.5-2.5h-2.3V66.9z"/>
	<path class="st2" d="M179.8,55.4v0.7c0,2.1-1.1,4-3.3,4.9l4.8,8.8h-3.9l-4.2-7.9c-0.5,0.1-1.5,0-2.3,0v7.9h-3.6V50.1
		c1.7-0.1,4.1-0.2,5.5-0.2C177.7,49.9,179.8,52.1,179.8,55.4z M170.8,53.1v5.7c0.9,0.1,1.3,0.1,1.9,0.1c2.5,0,3.5-1.1,3.5-2.8v-0.5
		c0-1.7-1-2.6-3.5-2.6C172.2,53,171.4,53.1,170.8,53.1z"/>
	<path class="st2" d="M183.1,69.8V50.3h3.6v19.6L183.1,69.8L183.1,69.8z"/>
	<path class="st2" d="M197.9,53.5v16.3h-3.6V53.5h-5.4v-3.3h14.3v3.3H197.9z"/>
	<path class="st2" d="M205.6,69.8V50.3h3.6v19.6L205.6,69.8L205.6,69.8z"/>
	<path class="st2" d="M222.4,50.4l-0.1,3.3c-1.5-0.3-3.3-0.5-4.4-0.5c-1.9,0-2.6,0.7-2.6,2.1v0.6c0,1.1,0.3,1.5,1.9,2l2.6,0.9
		c2.8,0.9,3.8,2.3,3.8,5.4v0.6c0,3.6-1.9,5.6-6.8,5.6c-1.1,0-2.9-0.3-4.6-0.6v-3.3c1.6,0.4,3.4,0.7,4.5,0.7c2.5,0,3.3-0.8,3.3-2.2
		v-1c0-1-0.4-1.6-1.6-2l-2.9-1c-2.9-1-3.9-2.2-3.9-5.3v-0.3c0-3.6,1.8-5.5,6.1-5.5C219,49.9,220.8,50.1,222.4,50.4z"/>
	<path class="st2" d="M235.9,69.8v-8.5h-6.2v8.5h-3.6V50.3h3.6v7.9h6.2v-7.9h3.6v19.6L235.9,69.8L235.9,69.8z"/>
</g>
<g class="st1">
	<path class="st2" d="M257.9,50.4l-0.1,3.2c-1.2-0.2-2.7-0.5-4.1-0.5c-2.5,0-3.4,0.8-3.4,3.2v7.4c0,2.4,0.9,3.2,3.4,3.2
		c1.4,0,2.9-0.3,4.1-0.5l0.1,3.3c-1.5,0.3-3.1,0.5-4.5,0.5c-4.9,0-6.6-2.1-6.6-6.2v-7.8c0-4.2,1.8-6.2,6.6-6.2
		C254.7,49.9,256.2,50.1,257.9,50.4z"/>
</g>
<g class="st1">
	<path class="st2" d="M268.4,69.8h-3.6V63l-5.6-12.8h4l3.4,9.4l3.5-9.4h3.9L268.4,63V69.8L268.4,69.8z"/>
	<path class="st2" d="M299.9,66.6v3.2H289V50.3h3.6v16.4L299.9,66.6L299.9,66.6z"/>
	<path class="st2" d="M302.1,69.8V50.3h3.6v19.6L302.1,69.8L302.1,69.8z"/>
	<path class="st2" d="M312.5,69.8H309V50.3h4.9l5.1,13.8V50.3h3.4v19.6h-4.8L312.5,56V69.8z"/>
	<path class="st2" d="M337.7,50.5l-0.1,3.2c-1.2-0.2-3.7-0.6-5.3-0.6c-2.3,0-3.1,0.8-3.1,3v8c0,2.1,0.8,3,3,3c0.8,0,1.7-0.1,2.7-0.3
		v-5.3H332v-3.2h6.5V69c-1.8,0.6-4.3,1.2-6.3,1.2c-4.8,0-6.5-2.1-6.5-6.2v-7.8c0-4.3,1.9-6.2,6.6-6.2
		C333.8,49.9,336.2,50.2,337.7,50.5z"/>
</g>
<g class="st1">
	<path class="st2" d="M207.6,81.4l-0.1,3.2c-1.2-0.2-2.7-0.5-4.1-0.5c-2.5,0-3.4,0.8-3.4,3.2v7.4c0,2.4,0.9,3.2,3.4,3.2
		c1.4,0,2.9-0.3,4.1-0.5l0.1,3.3c-1.5,0.3-3.1,0.5-4.5,0.5c-4.9,0-6.6-2.1-6.6-6.2v-7.8c0-4.2,1.8-6.2,6.6-6.2
		C204.5,80.9,206,81.1,207.6,81.4z"/>
</g>
<g class="st1">
	<path class="st2" d="M223.5,87.5v7.1c0,4.1-2,6.6-6.8,6.6c-4.7,0-6.7-2.5-6.7-6.6v-7.1c0-4.2,2-6.6,6.7-6.6S223.5,83.3,223.5,87.5z
		 M213.6,87.2v7.6c0,2.1,1.1,3.1,3.2,3.1c2.1,0,3.2-1.1,3.2-3.1v-7.6c0-2-1.1-3.1-3.2-3.1C214.6,84.1,213.6,85.2,213.6,87.2z"/>
	<path class="st2" d="M236,100.8l-1-4.1h-6.2l-1,4.1h-3.7l5.8-19.6h4.2l5.8,19.6H236z M234.2,93.7l-2.4-9.4l-2.4,9.4H234.2z"/>
</g>
<g class="st1">
	<path class="st2" d="M252.5,81.4l-0.1,3.2c-1.2-0.2-2.7-0.5-4.1-0.5c-2.5,0-3.4,0.8-3.4,3.2v7.4c0,2.4,0.9,3.2,3.4,3.2
		c1.4,0,2.9-0.3,4.1-0.5l0.1,3.3c-1.5,0.3-3.1,0.5-4.5,0.5c-4.9,0-6.6-2.1-6.6-6.2v-7.8c0-4.2,1.8-6.2,6.6-6.2
		C249.4,80.9,250.8,81.1,252.5,81.4z"/>
	<path class="st2" d="M265.1,100.8v-8.5h-6.2v8.5h-3.6V81.3h3.6v7.9h6.2v-7.9h3.6v19.6L265.1,100.8L265.1,100.8z"/>
	<path class="st2" d="M275.6,84.5v4.7h6.7v3.3h-6.7v5h7.3v3.3H272V81.3h10.9v3.3h-7.3V84.5z"/>
	<path class="st2" d="M295.9,81.4l-0.1,3.3c-1.5-0.3-3.3-0.5-4.4-0.5c-1.9,0-2.6,0.7-2.6,2.1v0.6c0,1.1,0.3,1.5,1.9,2l2.6,0.9
		c2.8,0.9,3.8,2.3,3.8,5.4v0.6c0,3.6-1.9,5.6-6.8,5.6c-1.1,0-2.9-0.3-4.6-0.6v-3.3c1.6,0.4,3.4,0.7,4.5,0.7c2.5,0,3.3-0.8,3.3-2.2
		v-1c0-1-0.4-1.6-1.6-2l-2.9-1c-2.9-1-3.9-2.2-3.9-5.3v-0.3c0-3.6,1.8-5.5,6.1-5.5C292.6,80.9,294.2,81.1,295.9,81.4z"/>
</g>
<g class="st1">
	<path class="st2" d="M287,50.4l-0.1,3.2c-1.2-0.2-2.7-0.5-4.1-0.5c-2.5,0-3.4,0.8-3.4,3.2v7.4c0,2.4,0.9,3.2,3.4,3.2
		c1.4,0,2.9-0.3,4.1-0.5l0.1,3.3c-1.5,0.3-3.1,0.5-4.5,0.5c-4.9,0-6.6-2.1-6.6-6.2v-7.8c0-4.2,1.8-6.2,6.6-6.2
		C283.8,49.9,285.3,50.1,287,50.4z"/>
</g>
<g>
	<path class="st2" d="M124.6,49c-18.1,0.6-23.9,5.1-23.9,14.1v4.6c4.7-4.6,8.9-6.4,13.3-6.4c9.9,0,16.1,6.3,16.1,20.2v4
		c0,13.9-7.6,21.1-21.3,21.1S87.7,98.8,87.7,85V64.7c0-17,11.7-26.5,36.9-26.8V49z M100.7,78.5v7.2c0,6.6,2.8,9.6,8.1,9.6
		c5.6,0,8.3-2.9,8.3-9v-5.1c0-5.7-2.3-8.3-6.4-8.3C107.6,72.8,104,75.1,100.7,78.5z"/>
</g>
</svg>
