<svg xmlns="http://www.w3.org/2000/svg" viewBox="0 0 200 200"><path d="M100,0A100,100,0,1,0,200,100,100,100,0,0,0,100,0Zm0,180.82A80.82,80.82,0,1,1,180.82,100,80.83,80.83,0,0,1,100,180.82Z" transform="translate(0 0)" fill="#231f20"/><circle cx="100.27" cy="100" r="12.57" fill="#231f20"/><path d="M100.71,106.4,61.37,80.49A5.11,5.11,0,0,1,67,72L99.84,93.6l43.82-38.22a5.1,5.1,0,0,1,6.71,7.69Z" transform="translate(0 0)" fill="#231f20"/><rect x="151.55" y="98.47" width="36.54" height="3.06" fill="#231f20"/><rect x="11.92" y="98.47" width="36.54" height="3.06" fill="#231f20"/><rect x="98.47" y="11.92" width="3.06" height="36.54" fill="#231f20"/><rect x="98.47" y="151.55" width="3.06" height="36.54" fill="#231f20"/></svg>